<?xml version="1.0" encoding="utf-8"?>
<!-- Generator: Adobe Illustrator 19.2.1, SVG Export Plug-In . SVG Version: 6.00 Build 0)  -->
<svg version="1.1" id="Layer_1" xmlns="http://www.w3.org/2000/svg" xmlns:xlink="http://www.w3.org/1999/xlink" x="0px" y="0px"
	 viewBox="0 0 180.5 28.8" style="enable-background:new 0 0 180.5 28.8;" xml:space="preserve">
<style type="text/css">
	.st0{fill:#FFFFFF;}
</style>
<title>vmware</title>
<path class="st0" d="M80.6,26.6L72.4,3.7c-0.1-0.4-0.2-0.7-0.2-1.1c0-1.1,0.9-1.9,1.9-1.9c0,0,0,0,0.1,0c1,0,1.8,0.7,2,1.7L83,22.1
	l6.9-19.8c0.2-0.9,1-1.6,2-1.6h0.2c1,0,1.8,0.7,2.1,1.6l6.8,19.8l6.9-19.8c0.2-0.9,1-1.6,1.9-1.6c1.1,0,2,0.8,2,1.8c0,0,0,0,0,0.1
	c0,0.4-0.1,0.8-0.3,1.1l-8.3,22.9c-0.3,1-1.1,1.8-2.2,1.8h-0.2c-1.1,0-2-0.8-2.2-1.8L92,7.1l-6.8,19.5c-0.2,1-1.1,1.8-2.2,1.8h-0.1
	C81.8,28.4,80.9,27.6,80.6,26.6"/>
<path class="st0" d="M140.5,2.6c0-1.1,0.9-2,2-2c1.1,0,2,0.8,2,1.9c0,0,0,0.1,0,0.1v4.6c1.6-3.8,5.2-6.3,9.3-6.6c1.1,0,2,0.8,2,1.9
	c0,0,0,0.1,0,0.1c0.1,1-0.7,1.9-1.8,2c0,0,0,0,0,0c-5.2,0.6-9.5,4.6-9.5,12.4v9.2c0,1.1-0.9,2-2,2s-2-0.9-2-2V2.6L140.5,2.6z"/>
<path class="st0" d="M168.8,28.6c-7.3,0-13.3-5.7-13.3-14v-0.1c0-7.7,5.4-14,12.7-14c7.9,0,12.3,6.5,12.3,13.6c0,1-0.9,1.9-1.9,1.9
	h-19.2c0.6,5.8,4.6,9.1,9.3,9.1c2.8,0,5.6-1.1,7.6-3.1c0.3-0.3,0.7-0.5,1.1-0.5c0.9,0,1.7,0.7,1.7,1.7c0,0,0,0,0,0
	c0,0.5-0.2,1-0.6,1.3C176,27.3,172.5,28.8,168.8,28.6 M176.7,13.1c-0.4-4.9-3.2-9.1-8.5-9.1c-4.6,0-8.1,3.9-8.6,9.1H176.7z"/>
<path class="st0" d="M111.9,20.2v-0.1c0-5.7,4.7-8.7,11.5-8.7c2.8,0,5.6,0.4,8.3,1.2v-0.9c0-4.9-3-7.4-8.1-7.4
	c-2.2-0.1-4.3,0.3-6.3,1.2c-0.2,0.1-0.5,0.2-0.7,0.2c-0.9,0-1.7-0.8-1.8-1.7c0-0.7,0.4-1.4,1.1-1.7c2.6-1.1,5.3-1.7,8.1-1.5
	c3.8,0,6.7,1,8.7,3c1.8,1.8,2.8,4.4,2.8,7.9v14.9c0,1.1-0.8,2-1.8,2c0,0,0,0-0.1,0c-1,0-1.9-0.8-1.9-1.8c0,0,0-0.1,0-0.1v-2.6
	c-2.3,3.1-6,4.8-9.8,4.7C117,28.6,111.9,25.7,111.9,20.2 M131.8,18.1v-2.6c-2.6-0.8-5.2-1.2-7.9-1.2c-5.1,0-7.9,2.2-7.9,5.6V20
	c0,3.4,3.1,5.4,6.8,5.4C127.7,25.4,131.8,22.4,131.8,18.1"/>
<path class="st0" d="M7.4,2.4c-0.8-1.9-3-2.9-4.9-2.1c-0.1,0-0.1,0-0.2,0.1c-1.9,0.8-2.8,3.1-1.9,5c0,0,0,0.1,0,0.1L9,24.1
	c1.3,2.9,2.8,4.5,5.4,4.5c2.9,0,4.1-1.7,5.4-4.5c0,0,7.5-16.3,7.6-16.5c0.2-0.5,0.6-0.7,1.1-0.7c0.7,0,1.2,0.5,1.2,1.2V24
	c0,2.5,1.4,4.5,4,4.5s4-2,4-4.5V11.1c-0.1-2.2,1.7-4,3.9-4.1c0.1,0,0.3,0,0.4,0c2.1-0.1,4,1.5,4.1,3.6c0,0.2,0,0.3,0,0.5v13
	c0,2.5,1.4,4.5,4,4.5s4-2,4-4.5v-13C54,8.9,55.8,7.1,58,7c0.1,0,0.2,0,0.3,0c2.1-0.1,4,1.5,4.1,3.6c0,0.2,0,0.3,0,0.5v13
	c0,2.5,1.4,4.5,4,4.5c2.6,0,4-2,4-4.5V9.3C70.4,3.8,66,0,60.7,0c-3.2,0.1-6.2,1.4-8.5,3.7C50.5,1.5,48,0.1,44,0.1
	c-4.3,0-8.1,3.6-8.1,3.6c-1.8-2.2-4.5-3.5-7.3-3.6c-3.8,0-6.9,1.7-8.7,5.9l-5.5,12.9L7.4,2.4z"/>
</svg>
