<svg xmlns="http://www.w3.org/2000/svg" viewBox="0 0 476.08 95.47">
  <title>ericsson</title>
  <g>
    <g>
      <path d="M417.1,37.78a9.52,9.52,0,1,1-6.5-17.9l52.7-19.3a9.52,9.52,0,1,1,6.5,17.9Z" fill="#fff"/>
      <path d="M417.1,66.28a9.52,9.52,0,1,1-6.5-17.9l52.7-19.3A9.52,9.52,0,1,1,469.8,47Z" fill="#fff"/>
      <path d="M417.1,94.88A9.52,9.52,0,1,1,410.6,77l52.7-19.3a9.52,9.52,0,1,1,6.5,17.9Z" fill="#fff"/>
    </g>
    <g>
      <polygon points="0 29.48 38.6 29.48 38.6 39.88 13.6 39.88 13.6 49.08 37.5 49.08 37.5 59.88 13.6 59.88 13.6 69.28 39 69.28 39 79.88 0 79.88 0 29.48" fill="#fff"/>
      <polygon points="98.5 29.48 112.2 29.48 112.2 79.88 98.5 79.88 98.5 29.48" fill="#fff"/>
      <path d="M162.3,31.08l-0.9,10.8c-11.1-6.4-28.1-4.4-28.4,12.5s17.5,19.3,28.8,13.6l0.7,11c-19.9,6.2-43.8-.1-43.6-24.6,0-24,24-30.7,43.4-23.3h0Z" fill="#fff"/>
      <path d="M202.7,30.28l-0.9,10.5c-6.9-3.8-20-3.9-20,2.1,0,8.9,23.4,2.5,23.4,21.4,0,18.7-22.3,18.9-36.7,14.5l1-11.1c9.1,4.2,21.9,5.1,21.9-2.2,0-8-23.5-3.5-23.5-21.5-0.1-14.8,18.2-18.7,34.8-13.7h0Z" fill="#fff"/>
      <path d="M244.1,30.28l-0.9,10.5c-6.9-3.8-20-3.9-20,2.1,0,8.9,23.4,2.5,23.4,21.4,0,18.7-22.3,18.9-36.7,14.5l1-11.1c9.1,4.2,21.9,5.1,21.9-2.2,0-8-23.5-3.5-23.5-21.5-0.1-14.8,18.2-18.7,34.8-13.7h0Z" fill="#fff"/>
      <polygon points="307.3 29.48 324.7 29.48 341.2 61.98 341.2 29.48 353.9 29.48 353.9 79.88 337.5 79.88 320 46.78 320 79.88 307.3 79.88 307.3 29.48" fill="#fff"/>
      <path d="M275.6,28.18c14.3,0,25.1,8.4,25.1,26.6,0,17.4-10.9,26.4-25.1,26.4s-25-8.7-25-26.4c0-18.2,10.8-26.6,25-26.6h0Zm-11,26.6c0,7.7,3.3,16.4,11,16.4s10.9-8.7,11-16.4c0.1-7-3.3-16.4-11-16.4s-11,8.7-11,16.4h0Z" fill="#fff"/>
      <path d="M61.7,50.68h7.5c3.4,0.1,6.4-2,6.4-5.7,0-3.3-2.7-5.6-6.2-5.6H61.7v11.3h0ZM48.5,29.48H73.2c6.7,0,16.1,2.9,16.1,13.4,0,6.7-3,10.5-8.8,12.2a7.9,7.9,0,0,1,4.6,5.1c0,0.1,7.1,19.7,7.2,19.7H77.6l-5.2-15.2a5.22,5.22,0,0,0-5-3.9c-2.1,0-5.5-.1-5.5,0v19H48.5V29.48h0Z" fill="#fff"/>
    </g>
  </g>
</svg>
