<svg xmlns="http://www.w3.org/2000/svg" viewBox="0 0 187.57 28.8">
  <title>vmware</title>
  <path d="M80.57,26.6L72.37,3.7a3.59,3.59,0,0,1-.2-1.1,1.92,1.92,0,0,1,2-1.9,2.12,2.12,0,0,1,2,1.7L83,22.1l6.9-19.8a2,2,0,0,1,2-1.6h0.2a2.16,2.16,0,0,1,2.1,1.6L101,22.1l6.9-19.8a2,2,0,0,1,1.9-1.6,1.92,1.92,0,0,1,2,1.9,3.54,3.54,0,0,1-.3,1.1l-8.3,22.9a2.38,2.38,0,0,1-2.2,1.8h-0.2a2.29,2.29,0,0,1-2.2-1.8L92,7.1l-6.8,19.5A2.29,2.29,0,0,1,83,28.4h-0.1a2.49,2.49,0,0,1-2.3-1.8" fill="#fff"/>
  <path d="M140.47,2.6a2,2,0,0,1,2-2,1.94,1.94,0,0,1,2,2V7.2a11,11,0,0,1,9.3-6.6,1.94,1.94,0,0,1,2,2,1.9,1.9,0,0,1-1.8,2c-5.2.6-9.5,4.6-9.5,12.4v9.2a2,2,0,0,1-4,0V2.6h0Z" fill="#fff"/>
  <path d="M168.77,28.6c-7.3,0-13.3-5.7-13.3-14V14.5c0-7.7,5.4-14,12.7-14,7.9,0,12.3,6.5,12.3,13.6a1.9,1.9,0,0,1-1.9,1.9h-19.2c0.6,5.8,4.6,9.1,9.3,9.1a10.61,10.61,0,0,0,7.6-3.1,1.61,1.61,0,0,1,1.1-.5,1.69,1.69,0,0,1,1.7,1.7,1.76,1.76,0,0,1-.6,1.3,12.09,12.09,0,0,1-9.7,4.1m7.9-15.5c-0.4-4.9-3.2-9.1-8.5-9.1-4.6,0-8.1,3.9-8.6,9.1h17.1Z" fill="#fff"/>
  <path d="M111.87,20.2V20.1c0-5.7,4.7-8.7,11.5-8.7a27.52,27.52,0,0,1,8.3,1.2V11.7c0-4.9-3-7.4-8.1-7.4a13.65,13.65,0,0,0-6.3,1.2,2.54,2.54,0,0,1-.7.2,1.84,1.84,0,0,1-1.8-1.7,1.75,1.75,0,0,1,1.1-1.7A17.52,17.52,0,0,1,124,.8q5.7,0,8.7,3c1.8,1.8,2.8,4.4,2.8,7.9V26.6a1.92,1.92,0,0,1-1.9,2,1.84,1.84,0,0,1-1.9-1.9V24.1a11.77,11.77,0,0,1-9.8,4.7c-4.9-.2-10-3.1-10-8.6m19.9-2.1V15.5a27.38,27.38,0,0,0-7.9-1.2c-5.1,0-7.9,2.2-7.9,5.6V20c0,3.4,3.1,5.4,6.8,5.4,4.9,0,9-3,9-7.3" fill="#fff"/>
  <path d="M7.37,2.4a3.78,3.78,0,0,0-5.1-2A3.79,3.79,0,0,0,.37,5.5L9,24.1c1.3,2.9,2.8,4.5,5.4,4.5,2.9,0,4.1-1.7,5.4-4.5,0,0,7.5-16.3,7.6-16.5a1.08,1.08,0,0,1,1.1-.7,1.22,1.22,0,0,1,1.2,1.2V24c0,2.5,1.4,4.5,4,4.5s4-2,4-4.5V11.1A4,4,0,0,1,42,7a3.88,3.88,0,0,1,4.1,4.1v13c0,2.5,1.4,4.5,4,4.5s4-2,4-4.5v-13A4,4,0,0,1,58.27,7a3.88,3.88,0,0,1,4.1,4.1v13c0,2.5,1.4,4.5,4,4.5s4-2,4-4.5V9.3c0-5.5-4.4-9.3-9.7-9.3a12.76,12.76,0,0,0-8.5,3.7C50.47,1.5,48,.1,44,0.1c-4.3,0-8.1,3.6-8.1,3.6A10.09,10.09,0,0,0,28.57.1c-3.8,0-6.9,1.7-8.7,5.9l-5.5,12.9Z" fill="#fff"/>
  <path d="M181,4h0a3.42,3.42,0,0,1,3.3-3.4,3.27,3.27,0,0,1,3.3,3.3h0a3.42,3.42,0,0,1-3.3,3.4A3.27,3.27,0,0,1,181,4m6-.1h0a2.69,2.69,0,0,0-2.7-2.7,2.75,2.75,0,0,0-2.7,2.7h0a2.69,2.69,0,0,0,2.7,2.7A2.63,2.63,0,0,0,187,3.9" fill="#fff"/>
  <path d="M183,2.6a0.43,0.43,0,0,1,.4-0.4h1.1a1.22,1.22,0,0,1,.9.3,0.91,0.91,0,0,1,.3.7h0a1.17,1.17,0,0,1-.6,1l0.5,0.6a0.37,0.37,0,0,1,.1.3,0.32,0.32,0,0,1-.3.3,0.52,0.52,0,0,1-.4-0.2l-0.7-.9h-0.6V5a0.4,0.4,0,1,1-.8,0L183,2.6h0Zm1.5,1.2a0.47,0.47,0,0,0,.5-0.5h0a0.51,0.51,0,0,0-.6-0.5h-0.7V3.7l0.8,0.1h0Z" fill="#fff"/>
</svg>
