<svg xmlns="http://www.w3.org/2000/svg" viewBox="0 0 554.7 88.3">
  <title>siemens</title>
  <g>
    <path d="M548.4,3.1V19.6c-8.6-3.2-16.2-4.9-22.9-4.9-4,0-7.1.7-9.5,2.1s-3.6,3.2-3.6,5.3c0,2.8,2.7,5.2,8,7.4l15.5,7.6c12.6,6,18.8,13.9,18.8,23.9a23.24,23.24,0,0,1-10,19.8c-6.6,5-15.5,7.4-26.6,7.4a115.49,115.49,0,0,1-13.8-.7,98.51,98.51,0,0,1-14-2.6V67.7c9.5,3.2,18.2,4.9,26.1,4.9,9.3,0,14-2.7,14-8.2,0-2.7-1.9-4.9-5.8-6.6l-17.3-7.4c-6.4-2.9-11.1-6.4-14.2-10.5a24.24,24.24,0,0,1-4.6-14.4c0-7.6,3.2-13.8,9.6-18.5S513,0,523.6,0a89.1,89.1,0,0,1,11.8.9c4.6,0.6,8.9,1.3,13,2.2h0Z" fill="#fff"/>
    <path d="M59.7,3.1V19.6c-8.6-3.2-16.2-4.8-22.9-4.8-4,0-7.1.7-9.5,2.1s-3.6,3.2-3.6,5.3c0,2.8,2.7,5.2,8.1,7.4l15.5,7.6c12.5,6,18.8,13.9,18.8,23.9a23.4,23.4,0,0,1-9.9,19.8c-6.7,5-15.5,7.4-26.7,7.4a115.49,115.49,0,0,1-13.8-.7A101.14,101.14,0,0,1,1.7,85V67.7c9.6,3.2,18.3,4.9,26.1,4.9,9.3,0,14-2.7,14-8.2q0-4-5.7-6.6L18.8,50.4C12.4,47.5,7.7,44,4.6,39.9A23.58,23.58,0,0,1,0,25.5C0,17.9,3.2,11.7,9.6,7S24.5,0,35.1,0A87.9,87.9,0,0,1,46.9.9C51.3,1.5,55.6,2.2,59.7,3.1Z" fill="#fff"/>
    <polygon points="77.5 1.6 102.8 1.6 102.8 86.8 77.5 86.8 77.5 1.6" fill="#fff"/>
    <polygon points="184.3 1.6 184.3 17.3 146.7 17.3 146.7 36.2 179.3 36.2 179.3 50.4 146.7 50.4 146.7 70.2 185.1 70.2 185.1 86.8 122.4 86.8 122.4 1.6 184.3 1.6" fill="#fff"/>
    <polygon points="302.4 1.6 302.4 86.8 278.8 86.8 278.8 30.6 254.3 87.5 239.7 87.5 216.1 30.6 216.1 86.8 199.1 86.8 199.1 1.6 229.9 1.6 251 53.7 273.1 1.6 302.4 1.6" fill="#fff"/>
    <polygon points="383.9 1.6 383.9 17.3 346.5 17.3 346.5 36.2 379.1 36.2 379.1 50.4 346.5 50.4 346.5 70.2 384.7 70.2 384.7 86.8 322 86.8 322 1.6 383.9 1.6" fill="#fff"/>
    <polygon points="472.7 1.6 472.7 86.8 445.9 86.8 415.7 32.1 415.7 86.8 398.7 86.8 398.7 1.6 426.3 1.6 455.6 55.3 455.6 1.6 472.7 1.6" fill="#fff"/>
  </g>
</svg>
