<svg height="855" width="2500" xmlns="http://www.w3.org/2000/svg" viewBox="0.78 0.761 229.339 79.145"><path d="M.78.761h229.339v77.776H.78z" fill="none"/><path d="M90.8 42.33c7.75-1.665 6.693-10.937 6.466-12.963-.382-3.125-4.055-8.582-9.04-8.146-6.274.56-7.19 9.623-7.19 9.623C80.186 35.041 83.064 44 90.8 42.33m14.392-15.543c4.278 0 7.736-4.93 7.736-11.02s-3.458-11.013-7.736-11.013c-4.28 0-7.747 4.922-7.747 11.013 0 6.09 3.466 11.02 7.747 11.02m18.444.725c5.727.75 9.396-5.359 10.13-9.988.75-4.623-2.95-10-6.995-10.923-4.063-.934-9.135 5.57-9.592 9.813-.557 5.19.736 10.365 6.457 11.098m22.679 7.777c0-2.214-1.833-8.888-8.66-8.888-6.84 0-7.743 6.298-7.743 10.748 0 4.247.354 10.171 8.848 9.987 8.485-.188 7.555-9.618 7.555-11.847m-8.66 19.436s-8.852-6.848-14.02-14.252c-7.015-10.917-16.97-6.47-20.297-.927-3.318 5.558-8.476 9.068-9.214 10-.745.913-10.692 6.288-8.485 16.103 2.212 9.807 9.969 9.621 9.969 9.621s5.717.56 12.347-.924c6.644-1.479 12.36.363 12.36.363s15.498 5.197 19.733-4.803c4.24-9.992-2.392-15.18-2.392-15.18" fill="#2319dc"/><path d="M106.568 45.178v6.588H101.2s-5.365.445-7.243 6.526c-.655 4.06.578 6.451.793 6.962.217.51 1.95 3.48 6.305 4.352h10.073V45.25zm-.081 20.43h-4.058s-2.827-.147-3.688-3.402c-.444-1.442.066-3.108.29-3.763.205-.656 1.154-2.172 3.11-2.756h4.345zM113.597 52.357v12.824s.21 3.191 4.71 4.354h11.592v-17.18h-5.003v12.897h-4.774s-1.526-.222-1.813-1.448V52.281z" fill="#fff"/><g fill="#e10601"><path d="M185.13 43.937v-5.406h-35.612l-.046 5.486h15.31l-1.436 3.281h-13.02v27.13h30.929c3.233 0 2.946-3.267 2.946-3.267V47.3h-13.04l1.147-3.359h12.82v-.003zm-6.916 24.698s-.375.901-.905.901h-20.523v-6.328h21.43zm-.035-10.653h-21.396v-5.934h21.396zM225.823 38.676H211.85V35.94h-6.553v2.602h-16.028v35.831h5.767V43.163h30.787zm-3.77 7.416v-2.074h-5.632v2.074h-11.59v-2h-5.335v2h-3.605l.07 4.06h3.535v7.622h19.492c2.705 0 3.063-2.854 3.063-2.854v-4.77h4.125v-4.06h-4.124zm-5.632 6.83s-.503.924-1.146.924H204.77v-3.775h11.648v2.853h.003zM196.678 63.33l8.973 5.204c-.711.781-3.775 1.773-3.775 1.773h-5.982v4h8.122c2.424-.496 6.91-2.776 6.91-2.776 1.856 1.705 5.425 2.415 5.425 2.415h9.258v-3.99h-6.98c-1.88-.28-3.57-1.354-3.57-1.354l10.552-6.058v-3.28h-28.93v4.064zm18.67-.067l-5.132 2.707-4.704-2.707zM70.28 44.381h7.773v-6.848H70.28zm0 29.845h7.773V47.364H70.28zM57.64 47.387l-16.583-.043v5.647h14.542s3.46.854 3.46 3.05v1.99H45.902s-5.175.477-6.837 6.658c-.286 2.896.095 4.318.29 4.846.187.523 1.703 3.938 6.216 4.791h20.953V55.083c0 .001-.998-6.603-8.882-7.696M59.06 69.01H48.47c-1.423-.574-1.897-1.52-1.997-1.76-.098-.234-.428-1.085-.044-1.945.857-1.658 2.277-2.04 2.277-2.04H59.06zM37.355 64.805c.229-6.54-5.64-8.803-5.64-8.803 4.968-2.598 4.337-9.146 4.337-9.146-.538-10.02-12.782-9.553-12.782-9.553H4.35V74.65h21.363c12.545-.05 11.642-9.845 11.642-9.845m-12.071 2.903v.017H12.487v-8.058H25.22l.43.087s2.424.443 3.302 2.622c0 0 .508 2.048-.59 3.57 0 0-.806 1.405-3.08 1.762m2.714-17.316s-.86 1.58-3.142 1.922H12.487v-7.729h12.315s2.676-.123 3.562 2.002c0 .001.532 2.26-.367 3.805"/></g></svg>