<?xml version="1.0" encoding="utf-8"?>
<!-- Generator: Adobe Illustrator 27.3.1, SVG Export Plug-In . SVG Version: 6.00 Build 0)  -->
<svg version="1.1" id="Layer_1" xmlns="http://www.w3.org/2000/svg" xmlns:xlink="http://www.w3.org/1999/xlink" x="0px" y="0px"
	 viewBox="0 0 1920 611.3" style="enable-background:new 0 0 1920 611.3;" xml:space="preserve">
<style type="text/css">
	.st0{fill:#1C1C1C;}
	.st1{fill:url(#SVGID_1_);}
</style>
<g>
	<g>
		<g>
			<path class="st0" d="M1835.5,129.3v255.8c0,0,0,0,0,0.2c0,31.6-25.8,57.4-57.5,57.4s-57.5-25.7-57.5-57.4c0,0,0,0,0-0.2V353
				h-50.9v32.1c0,59.6,48.5,107.9,108.2,107.9S1886,444.7,1886,385.1V129.3H1835.5z"/>
			<path class="st0" d="M1609.1,375.4c1.1-7.3,1.8-14.7,1.8-22.4c0-7.7-0.7-15.2-1.8-22.4c-10.8-66.6-68.5-117.4-138.3-117.4
				s-127.5,50.8-138.3,117.4c-1.1,7.3-1.8,14.7-1.8,22.4c0,7.7,0.7,15.2,1.8,22.4c10.8,66.6,68.5,117.4,138.3,117.4
				c60.6,0,112.3-38.5,131.7-92.3h-55.9c-15.9,25.3-44.1,42-76,42c-41.9,0-76.9-28.6-86.8-67h225.3V375.4z M1383.7,330.6
				c9.9-38.7,45.2-67,86.8-67c41.9,0,76.9,28.6,86.8,67H1383.7z M792.3,213.2c-34.1,0-65.4,12.1-89.7,32.3V129.3h-50.4v222.4
				c0,0.4,0,0.9,0,1.3c0,77.1,62.8,139.8,140.1,139.8S932.4,430.2,932.4,353C932.4,275.9,869.8,213.2,792.3,213.2z M792.3,442.5
				c-49.6,0-89.7-40-89.7-89.4s40.1-89.4,89.7-89.4c49.6,0,89.7,40,89.7,89.4S841.8,442.5,792.3,442.5z M1249.6,213.6l0.6,160.3
				c0,38-31.1,69-69.2,69s-69.2-31-69.2-69l-1.8-160.3h-49.4l0.7,160.3c0,65.9,53.5,119.3,119.6,119.3s119.6-53.4,119.6-119.3
				l-1.2-160.3L1249.6,213.6L1249.6,213.6z M961,494.1h50.5l1.2-364.8h-50.4L961,494.1z"/>
		</g>
	</g>
	
		<linearGradient id="SVGID_1_" gradientUnits="userSpaceOnUse" x1="25.8701" y1="307.282" x2="504.3594" y2="307.282" gradientTransform="matrix(1 0 0 -1 0 614)">
		<stop  offset="3.058862e-03" style="stop-color:#1A3D6C"/>
		<stop  offset="0.1055" style="stop-color:#114E90"/>
		<stop  offset="0.2807" style="stop-color:#006ED5"/>
		<stop  offset="0.3676" style="stop-color:#0074D9"/>
		<stop  offset="0.4819" style="stop-color:#0084E5"/>
		<stop  offset="0.6111" style="stop-color:#009FF9"/>
		<stop  offset="0.6454" style="stop-color:#00A8FF"/>
		<stop  offset="0.717" style="stop-color:#3986D8"/>
		<stop  offset="0.8573" style="stop-color:#A24790"/>
		<stop  offset="0.9546" style="stop-color:#E51F62"/>
		<stop  offset="1" style="stop-color:#FF0F50"/>
	</linearGradient>
	<path class="st1" d="M109.2,140.7c-91.7,91.7-91.8,240.4-0.1,332.1c81.5,81.5,208,90.5,299.5,27.2c5.8-4,19.8-5.5,27.7-2.4l-24-24
		c-26.6-26.6-65.2-37-101.6-27.7c-47.5,12.1-100-0.3-137.1-37.5c-56.1-56.1-56.1-147.1,0-203.2s147.1-56.1,203.2,0
		c37.2,37.2,49.6,89.7,37.5,137.1c-9.3,36.4,1.2,75,27.7,101.6l24,24c-3.1-7.8-1.7-21.8,2.4-27.7c63.4-91.5,54.3-218-27.2-299.5
		C349.6,48.9,200.9,49,109.2,140.7z"/>
</g>
</svg>
