<svg width="128" height="32" viewBox="0 0 128 32" fill="none" xmlns="http://www.w3.org/2000/svg">
<g clip-path="url(#clip0_13242_7189)">
<mask id="mask0_13242_7189" style="mask-type:luminance" maskUnits="userSpaceOnUse" x="-1" y="0" width="129" height="32">
<path d="M127.108 0H-0.251953V32H127.108V0Z" fill="white"/>
</mask>
<g mask="url(#mask0_13242_7189)">
<path fill-rule="evenodd" clip-rule="evenodd" d="M30.788 0.96H0.708047V31.04H30.788V0.96ZM-0.251953 0V32H31.748V0H-0.251953Z" fill="#100D0D"/>
<path d="M11.2422 23.1111V8.88892H16.1184C18.1501 8.88892 19.7755 10.5143 19.7755 12.546V13.3587C19.7755 14.2934 19.4301 15.167 18.8409 15.7969C19.6536 16.4673 20.1819 17.4832 20.1819 18.6413V19.454C20.1819 21.4857 18.5565 23.1111 16.5247 23.1111H11.2422ZM13.2739 21.0794H16.5247C17.439 21.0794 18.1501 20.3683 18.1501 19.454V18.6413C18.1501 17.727 17.439 17.0159 16.5247 17.0159H13.2739V21.0794ZM13.2739 14.9841H16.1184C17.0327 14.9841 17.7438 14.273 17.7438 13.3587V12.546C17.7438 11.6318 17.0327 10.9207 16.1184 10.9207H13.2739V14.9841Z" fill="#100D0D"/>
<path d="M40.6016 21.3333V10.8169H44.207C45.7094 10.8169 46.9113 12.0188 46.9113 13.5211V14.122C46.9113 14.8132 46.656 15.4592 46.2201 15.9249C46.8211 16.4206 47.2118 17.1718 47.2118 18.0282V18.6291C47.2118 20.1315 46.0099 21.3333 44.5075 21.3333H40.6016ZM42.1036 19.831H44.5075C45.1836 19.831 45.7094 19.3052 45.7094 18.6291V18.0282C45.7094 17.3521 45.1836 16.8263 44.5075 16.8263H42.1036V19.831ZM42.1036 15.3239H44.207C44.8832 15.3239 45.4089 14.7981 45.4089 14.122V13.5211C45.4089 12.8451 44.8832 12.3192 44.207 12.3192H42.1036V15.3239Z" fill="#100D0D"/>
<path d="M48.7734 21.3334V13.6714H50.2758V14.8282L51.9734 13.6714H52.4093C53.7914 13.6714 54.9331 14.8733 54.9331 16.3756V16.9765H53.4307V16.3756C53.4307 15.7146 53.0102 15.1737 52.4093 15.1737H52.2739L50.2758 16.5108V21.3334H48.7734Z" fill="#100D0D"/>
<path d="M58.5878 21.3334C57.0857 21.3334 55.8838 20.1465 55.8838 18.6442V16.3756C55.8838 14.8733 57.0857 13.6714 58.5878 13.6714H59.7897C61.2921 13.6714 62.494 14.8733 62.494 16.3756V18.6442C62.494 20.1465 61.2921 21.3334 59.7897 21.3334H58.5878ZM57.3862 18.6442C57.3862 19.3202 57.9119 19.816 58.5878 19.831H59.7897C60.4659 19.831 60.9916 19.3202 60.9916 18.6442V16.3756C60.9916 15.6995 60.4659 15.1737 59.7897 15.1737H58.5878C57.9119 15.1737 57.3862 15.6995 57.3862 16.3756V18.6442Z" fill="#100D0D"/>
<path d="M65.2319 21.3334L63.8047 17.1268V13.6714H65.3071V16.6761L66.0581 19.0648L67.3352 15.0235H68.5672L69.844 19.0648L70.5954 16.6761V13.6714H72.0978V17.1268L70.6703 21.3334H69.3935L67.9512 17.7427L66.509 21.3334H65.2319Z" fill="#100D0D"/>
<path d="M75.8045 21.3334C74.3472 21.3334 73.2656 20.3869 73.2656 19.1099V18.8094H74.7677V19.1099C74.7677 19.5907 75.1584 19.9362 75.8045 19.9362H77.1715C77.8778 19.9362 78.2234 19.6507 78.2234 19.215C78.2234 17.5174 73.3706 18.6141 73.3706 15.6995C73.3706 14.4827 74.3472 13.6714 75.7744 13.6714H77.0666C78.4186 13.6714 79.4701 14.6479 79.4701 15.9099V16.0451H77.9677V15.9099C77.9677 15.4291 77.5923 15.0686 77.0666 15.0686H75.7744C75.1434 15.0686 74.873 15.324 74.873 15.6995C74.873 16.9164 79.7255 16.1503 79.7255 19.215C79.7255 20.477 78.689 21.3334 77.1715 21.3334H75.8045Z" fill="#100D0D"/>
<path d="M83.6311 21.3334C82.1437 21.3334 80.9268 20.1014 80.9268 18.6141V16.3756C80.9268 14.8733 82.1437 13.6714 83.6311 13.6714H84.833C86.2903 13.6714 87.4621 14.7981 87.537 16.2254V17.8479H82.4292V18.6141C82.4292 19.2751 82.97 19.816 83.6311 19.816H84.833C85.4941 19.816 86.0349 19.2751 86.0349 18.6141V18.4639H87.537V18.6141C87.537 20.1014 86.3354 21.3334 84.833 21.3334H83.6311ZM82.4292 16.646H86.0349V16.3756C86.0349 15.6995 85.5088 15.1737 84.833 15.1737H83.6311C82.9549 15.1737 82.4292 15.7146 82.4292 16.3756V16.646Z" fill="#100D0D"/>
<path d="M89.1641 21.3334V13.6714H90.6661V14.8282L92.3641 13.6714H92.7996C94.1817 13.6714 95.3234 14.8733 95.3234 16.3756V16.9765H93.8213V16.3756C93.8213 15.7146 93.4005 15.1737 92.7996 15.1737H92.6646L90.6661 16.5108V21.3334H89.1641Z" fill="#100D0D"/>
<path d="M99.2787 21.3334L98.0317 20.4921V21.3334H96.5293V10.6667H98.0317V14.5128L99.2787 13.6715H100.436C101.923 13.6715 103.14 14.8733 103.14 16.3757V18.6292C103.14 20.1165 101.923 21.3334 100.436 21.3334H99.2787ZM98.0317 18.6743L99.7443 19.8311H100.436C101.097 19.8311 101.637 19.2902 101.637 18.6292V16.3757C101.637 15.7147 101.097 15.1738 100.436 15.1738H99.7443L98.0317 16.3306V18.6743Z" fill="#100D0D"/>
<path d="M107.224 21.3334C105.736 21.3334 104.52 20.1164 104.52 18.6291V16.3756C104.52 14.8733 105.736 13.6714 107.224 13.6714H108.381L109.627 14.5127V13.6714H111.13V21.3334H109.627V20.4921L108.381 21.3334H107.224ZM106.022 18.6291C106.022 19.2902 106.563 19.831 107.224 19.831H107.915L109.627 18.6742V16.3306L107.915 15.1737H107.224C106.563 15.1737 106.022 15.7146 106.022 16.3756V18.6291Z" fill="#100D0D"/>
<path d="M115.168 21.3334C113.711 21.3334 112.629 20.3869 112.629 19.1099V18.8094H114.131V19.1099C114.131 19.5907 114.522 19.9362 115.168 19.9362H116.535C117.241 19.9362 117.587 19.6507 117.587 19.215C117.587 17.5174 112.734 18.6141 112.734 15.6995C112.734 14.4827 113.711 13.6714 115.138 13.6714H116.43C117.782 13.6714 118.834 14.6479 118.834 15.9099V16.0451H117.331V15.9099C117.331 15.4291 116.956 15.0686 116.43 15.0686H115.138C114.507 15.0686 114.236 15.324 114.236 15.6995C114.236 16.9164 119.089 16.1503 119.089 19.215C119.089 20.477 118.052 21.3334 116.535 21.3334H115.168Z" fill="#100D0D"/>
<path d="M122.995 21.3334C121.508 21.3334 120.291 20.1014 120.291 18.6141V16.3756C120.291 14.8733 121.508 13.6714 122.995 13.6714H124.197C125.655 13.6714 126.826 14.7981 126.902 16.2254V17.8479H121.793V18.6141C121.793 19.2751 122.334 19.816 122.995 19.816H124.197C124.858 19.816 125.399 19.2751 125.399 18.6141V18.4639H126.902V18.6141C126.902 20.1014 125.7 21.3334 124.197 21.3334H122.995ZM121.793 16.646H125.399V16.3756C125.399 15.6995 124.873 15.1737 124.197 15.1737H122.995C122.319 15.1737 121.793 15.7146 121.793 16.3756V16.646Z" fill="#100D0D"/>
</g>
</g>
<defs>
<clipPath id="clip0_13242_7189">
<rect width="127.36" height="32" fill="white"/>
</clipPath>
</defs>
</svg>
