<?xml version="1.0" encoding="UTF-8"?>
<svg xmlns="http://www.w3.org/2000/svg" width="152" height="50" viewBox="0 0 152 50" fill="none">
  <path fill-rule="evenodd" clip-rule="evenodd" d="M23.5742 0.910675C21.6698 -0.303558 19.2341 -0.303558 17.3297 0.910675L2.68534 10.2478C1.01262 11.3143 0 13.1609 0 15.1447V34.8553C0 36.8391 1.01262 38.6857 2.68534 39.7522L17.3297 49.0893C19.2341 50.3036 21.6698 50.3036 23.5742 49.0893L33.8069 42.565C32.3281 42.9958 30.8025 43.327 29.3879 43.5555C28.2241 43.7434 27.0188 43.6915 25.9218 43.2598C24.3244 42.631 23.4993 41.8446 22.8079 40.8146C28.3402 40.7708 33.5407 40.248 39.2224 38.8824C39.7351 38.7591 40.6454 38.1942 40.4342 37.1433C40.1043 35.8507 39.7121 34.5794 39.1926 33.3628C37.7909 30.0796 35.9178 28.7959 32.5285 27.7544C30.3293 27.0747 27.582 26.4171 24.613 25.7633C22.7607 25.3562 20.823 24.951 18.8847 24.5457C15.3947 23.8159 11.9026 23.0856 8.90403 22.343C7.78232 22.0651 6.76027 21.456 6.08864 20.5156C4.47708 18.2591 3.10526 15.3375 1.96383 12.6181C10.0598 12.9276 19.6623 15.2966 27.5589 18.1305C28.0143 18.2944 28.4908 18.4621 28.9829 18.6353C32.8703 20.0036 37.7358 21.7162 40.9039 24.5966V15.1447C40.9039 13.1609 39.8913 11.3143 38.2185 10.2478L23.5742 0.910675ZM24.2675 27.2778C22.4346 26.8757 20.5136 26.4756 18.5869 26.0744C15.0336 25.3344 11.459 24.59 8.37438 23.8195C9.03718 25.7369 9.81003 27.5123 11.1428 29.1642C12.3734 30.6896 14.2038 31.5667 16.1146 32.0025C22.8404 33.5367 31.2954 34.1274 37.6989 33.7521C36.4941 31.049 34.8643 30.1048 32.0538 29.234C29.9379 28.5779 27.2179 27.9253 24.2675 27.2778ZM38.2677 35.2559C31.3278 35.7354 22.0915 35.1467 14.8208 33.3214C15.5999 35.0778 16.8556 36.7384 18.8094 38.1139C20.0289 38.9724 21.5323 39.2851 23.0235 39.2691C28.18 39.2135 33.0101 38.7336 38.2527 37.5175C38.5715 37.4435 38.7661 37.1209 38.6886 36.8029C38.5644 36.2936 38.4393 35.7805 38.2677 35.2559Z" fill="url(#paint0_linear_112_205)"></path>
  <path d="M58.1731 36.6391C61.8371 36.6391 63.9309 35.045 65.525 32.8799L62.0512 30.4055C61.0282 31.6189 60.0289 32.4278 58.292 32.4278C55.9604 32.4278 54.3187 30.4769 54.3187 27.9787V27.9311C54.3187 25.5042 55.9604 23.5057 58.292 23.5057C59.9099 23.5057 60.9806 24.2908 61.9323 25.4566L65.406 22.7681C63.9546 20.7457 61.7182 19.3182 58.3396 19.3182C53.2956 19.3182 49.584 23.125 49.584 27.9787V28.0262C49.584 32.9989 53.4146 36.6391 58.1731 36.6391Z" fill="white"></path>
  <path d="M67.2724 36.306H71.793V29.3348C71.793 27.9073 72.5781 27.1459 73.6964 27.1459C74.8146 27.1459 75.5284 27.9073 75.5284 29.3348V36.306H80.0252V27.8835C80.0252 24.9332 78.4073 23.1488 75.6474 23.1488C73.8153 23.1488 72.6257 24.1243 71.793 25.1949V18.9375H67.2724V36.306Z" fill="white"></path>
  <path d="M86.0397 36.5915C87.7527 36.5915 88.9185 35.9253 89.8465 34.9499V36.306H94.2957V28.9066C94.2957 27.0983 93.8912 25.7659 92.9157 24.8142C91.8926 23.7912 90.3223 23.2439 88.0144 23.2439C85.8017 23.2439 84.2552 23.6484 82.8039 24.2432L83.7318 27.4076C84.8976 26.9556 85.9445 26.6939 87.3007 26.6939C89.0375 26.6939 89.8702 27.4552 89.8702 28.8114V29.0255C89.1327 28.74 87.9906 28.5259 86.7772 28.5259C83.7556 28.5259 81.7332 29.8821 81.7332 32.5706V32.6182C81.7332 35.164 83.589 36.5915 86.0397 36.5915ZM87.6575 33.7602C86.7296 33.7602 86.0634 33.2368 86.0634 32.3565V32.3089C86.0634 31.3334 86.801 30.7148 88.1334 30.7148C88.7996 30.7148 89.442 30.8575 89.9178 31.0479V31.6427C89.9178 32.9513 88.9899 33.7602 87.6575 33.7602Z" fill="white"></path>
  <path d="M101.594 36.5677C102.855 36.5677 103.902 36.2584 104.735 35.8064V32.2851C104.187 32.5468 103.616 32.7134 103.022 32.7134C102.189 32.7134 101.784 32.3565 101.784 31.4286V27.0507H104.782V23.4343H101.784V20.1747H97.2876V23.4343H95.7648V27.0507H97.2876V32.3089C97.2876 35.3781 98.8579 36.5677 101.594 36.5677Z" fill="white"></path>
  <path d="M112.705 40.1604C115.394 40.1604 117.202 39.5656 118.368 38.3522C119.486 37.2577 120.034 35.5447 120.034 33.213V23.4343H115.513V24.957C114.561 23.9339 113.443 23.1488 111.468 23.1488C108.518 23.1488 105.901 25.4329 105.901 29.1445V29.1921C105.901 32.8799 108.47 35.164 111.635 35.164C113.514 35.164 114.656 34.2837 115.584 33.2368V33.7364C115.584 35.8064 114.49 36.9008 112.23 36.9008C110.493 36.9008 109.137 36.4488 107.733 35.6874L106.281 38.6853C108.161 39.637 110.231 40.1604 112.705 40.1604ZM112.967 31.6903C111.421 31.6903 110.326 30.6434 110.326 29.2159V29.1683C110.326 27.7169 111.421 26.6463 112.967 26.6463C114.49 26.6463 115.608 27.7169 115.608 29.1445V29.1921C115.608 30.6196 114.514 31.6903 112.967 31.6903Z" fill="white"></path>
  <path d="M129.022 36.6153C133.138 36.6153 136.16 33.5699 136.16 29.8821V29.8345C136.16 26.1704 133.186 23.1488 129.069 23.1488C124.953 23.1488 121.956 26.1942 121.956 29.8821V29.9296C121.956 33.6175 124.93 36.6153 129.022 36.6153ZM129.069 32.7847C127.475 32.7847 126.333 31.4524 126.333 29.8821V29.8345C126.333 28.2404 127.38 26.9556 129.022 26.9556C130.64 26.9556 131.782 28.288 131.782 29.8821V29.9296C131.782 31.4761 130.711 32.7847 129.069 32.7847Z" fill="white"></path>
  <path d="M143.303 36.5915C145.231 36.5915 146.325 35.6636 147.205 34.593V36.306H151.726V18.9375H147.205V25.0046C146.373 24.0291 145.207 23.1488 143.28 23.1488C140.234 23.1488 137.593 25.6946 137.593 29.8821V29.9296C137.593 34.0457 140.258 36.5915 143.303 36.5915ZM144.66 32.8085C143.232 32.8085 142.019 31.5951 142.019 29.8821V29.8345C142.019 28.1214 143.232 26.908 144.66 26.908C146.135 26.908 147.3 28.1214 147.3 29.8345V29.8821C147.3 31.5951 146.135 32.8085 144.66 32.8085Z" fill="white"></path>
  <defs>
    <linearGradient id="paint0_linear_112_205" x1="-0.314645" y1="24.6154" x2="40.9039" y2="24.6154" gradientUnits="userSpaceOnUse">
      <stop stop-color="#01F967"></stop>
      <stop offset="1" stop-color="#67A5FF"></stop>
    </linearGradient>
  </defs>
</svg>
