<svg clip-rule="evenodd" fill-rule="evenodd" stroke-linejoin="round" stroke-miterlimit="1.41421" viewBox="0 0 560 400" xmlns="http://www.w3.org/2000/svg"><path d="m112.5 137.7s9.7-8.2 21.5-8.2v15.7c-23-.3-21.5 18.2-21.5 18.2v36.3h-14.2v-69h14.2zm83.5-6.9h14v38.4c0 17.6-13.9 32.4-31.5 32.4s-31.5-14.8-31.5-32.4v-38.4h13.9v38.4c0 9.7 7.9 17.9 17.6 17.9s17.6-8.2 17.6-17.9zm27.9 69v-69h14.2v69.3h-14.2zm-167.7-56.3c-11.8 0-21.5 9.7-21.5 21.5s9.7 21.5 21.5 21.5c7.3 0 13.6-3.6 17.9-9.4l11.2 8.5c-7 9.4-17.6 15.1-29.1 15.1-19.7.3-35.4-15.7-35.4-35.7s16-35.7 35.4-35.7c11.5 0 22.7 5.7 29.1 15.1l-11.2 8.5c-4-5.8-10.6-9.4-17.9-9.4zm268.1 15.1h41.2c-3.9-16.9-20.6-16.3-20.6-16.3s-15.1-1.2-20.6 16.3zm20.3-29s36.3-1.2 34.5 40.9h-55.1c1.2 5.1 3.6 9.4 7.6 13 3.9 3.6 9.1 5.4 14.8 5.4 0 0 11.8.6 18.8-9.4l10.3 7.6c-2.7 3.9-7.3 7.3-13.3 10.3-5.1 2.4-11.2 3.9-16.9 3.9-19.7 0-34.5-16-34.5-35.7-.4-20 14.8-36 33.8-36zm-49.9 35.4s7.6 4.5 7.3 15.1c0 0 .6 14.8-15.7 19.7 0 0-19.4 6.4-35.1-9.4l7.3-10c16 13.3 26.6 5.7 26.6 5.7 1.8-1.5 2.7-3.3 2.7-5.4 0-5.4-7-7.3-7-7.3-2.1-.6-4.2-1.5-7-2.1 0 0-8.5-2.1-14.8-6.1-2.1-1.5-3.9-3.3-5.4-5.7s-2.1-5.4-2.1-9.1c0 0-.6-13.6 12.1-19.4 0 0 17.9-7.6 34.5 5.7l-7.3 10.6c-7.6-5.7-15.1-5.4-15.1-5.4-3.3 0-5.4.6-7.3 2.1-1.5 1.5-2.4 2.7-2.4 4.5 0 0-.6 4.2 7 7.3 2.1.6 4.2 1.5 7 2.1 2.4.6 5.1 1.8 7.6 2.4 2.5 2 5 3.5 7.1 4.7zm-63.9-66.6c5.4 0 9.7 4.2 9.7 10 0 5.7-4.2 10-9.7 10s-9.7-4.2-9.7-10c.1-5.8 4.3-10 9.7-10z" fill="#ff4d37" fill-rule="nonzero" transform="matrix(1.00456 0 0 1.00456 79.1051 49.3156)"/></svg>