<svg width="302" height="64" viewBox="0 0 302 64" fill="none" xmlns="http://www.w3.org/2000/svg">
<path d="M2.05434 63.684C1.30923 63.684 0.7052 63.0799 0.7052 62.3348V1.62334C0.7052 0.878233 1.30923 0.2742 2.05434 0.2742H20.2025C26.4115 0.2742 31.8951 1.63298 36.6534 4.35054C41.4697 7.0681 45.2124 10.8123 47.8817 15.5831C50.609 20.2936 51.9727 25.7589 51.9727 31.9791C51.9727 38.1389 50.609 43.6042 47.8817 48.375C45.2124 53.1459 41.4697 56.89 36.6534 59.6076C31.8951 62.3252 26.4115 63.684 20.2025 63.684H2.05434ZM12.6299 52.089H20.2025C22.9878 52.089 25.5701 51.5757 27.9492 50.5491C30.3283 49.5224 32.3883 48.1033 34.1291 46.2916C35.928 44.4799 37.3207 42.3662 38.3071 39.9506C39.2936 37.4746 39.7868 34.8174 39.7868 31.9791C39.7868 29.1407 39.2936 26.5138 38.3071 24.0982C37.3207 21.6221 35.928 19.4783 34.1291 17.6666C32.3883 15.8549 30.3283 14.4357 27.9492 13.4091C25.5701 12.3824 22.9878 11.8691 20.2025 11.8691H12.6299V52.089Z" fill="#1F91C6"/>
<path d="M74.9937 63.6839C70.7678 63.6839 67.0274 62.7493 63.7723 60.8801C60.5172 58.9542 57.9474 56.3203 56.0629 52.9783C54.2355 49.6364 53.3218 45.7846 53.3218 41.4231C53.3218 37.0615 54.264 33.2098 56.1486 29.8678C58.0902 26.5258 60.7171 23.9202 64.0293 22.051C67.3986 20.1251 71.2533 19.1622 75.5934 19.1622C79.3624 19.1622 82.8173 20.1535 85.9582 22.136C89.1562 24.0619 91.6974 26.9223 93.5819 30.7175C95.3591 34.1393 96.323 38.2493 96.4735 43.0474C96.4968 43.7922 95.8903 44.3968 95.1452 44.3968H64.0293L65.0572 43.3773C65.0572 45.4731 65.5711 47.314 66.5991 48.9C67.6841 50.4294 69.0546 51.6189 70.7107 52.4685C72.4239 53.2615 74.2513 53.6581 76.193 53.6581C78.5343 53.6581 80.4474 53.1766 81.9322 52.2136C83.0724 51.4306 84.0106 50.4806 84.7467 49.3635C85.1286 48.784 85.852 48.496 86.4993 48.7463L94.0784 51.6769C94.822 51.9645 95.1586 52.833 94.7526 53.5192C93.6652 55.3571 92.3327 56.9894 90.7552 58.4161C88.8706 60.1154 86.6149 61.4182 83.988 62.3245C81.3611 63.2308 78.363 63.6839 74.9937 63.6839ZM65.6568 37.0898L64.6289 36.0703H85.2729L84.3307 37.0898C84.3307 35.0507 83.8453 33.4363 82.8745 32.2468C81.9036 31.0007 80.7044 30.0944 79.2767 29.528C77.9062 28.9615 76.5642 28.6783 75.2507 28.6783C73.9373 28.6783 72.5382 28.9615 71.0534 29.528C69.5686 30.0944 68.2837 31.0007 67.1987 32.2468C66.1708 33.4363 65.6568 35.0507 65.6568 37.0898Z" fill="#1F91C6"/>
<path d="M129.654 63.684C123.454 63.684 117.95 62.341 113.14 59.6552C108.389 56.9109 104.652 53.174 101.928 48.4446C99.205 43.6567 97.8434 38.1682 97.8434 31.9791C97.8434 25.7899 99.205 20.3306 101.928 15.6011C104.652 10.8133 108.389 7.07644 113.14 4.39058C117.95 1.64633 123.454 0.2742 129.654 0.2742C133.362 0.2742 136.781 0.82889 139.91 1.93827C143.039 3.04765 145.791 4.59494 148.167 6.58014C150.224 8.2088 151.991 10.046 153.468 12.0919C153.913 12.7076 153.715 13.5622 153.066 13.9568L145.047 18.8338C144.416 19.2177 143.599 19.019 143.223 18.383C142.53 17.2103 141.833 16.091 140.605 15.1632C139.041 13.9371 137.302 12.9737 135.39 12.273C133.478 11.5723 131.566 11.222 129.654 11.222C125.83 11.222 122.44 12.127 119.485 13.9371C116.53 15.6887 114.212 18.1118 112.532 21.2064C110.852 24.301 110.011 27.8919 110.011 31.9791C110.011 36.0079 110.823 39.5988 112.445 42.7517C114.125 45.9047 116.472 48.3862 119.485 50.1962C122.498 51.9479 125.975 52.8237 129.915 52.8237C132.986 52.8237 135.709 52.2106 138.085 50.9845C140.518 49.7583 142.43 48.0359 143.821 45.8171C145.212 43.5984 145.907 41.0293 145.907 38.1099L157.206 36.3582C157.206 42.1386 156.018 47.0725 153.642 51.1596C151.325 55.2468 148.08 58.3706 143.908 60.531C139.794 62.633 135.043 63.684 129.654 63.684ZM133.002 39.1608C132.257 39.1608 131.653 38.5568 131.653 37.8117V31.1387C131.653 30.3935 132.257 29.7895 133.002 29.7895H155.857C156.602 29.7895 157.206 30.3935 157.206 31.1387V37.234L150.774 39.1608H133.002Z" fill="#1F91C6"/>
<path d="M180.944 63.6839C176.614 63.6839 172.74 62.7493 169.322 60.8801C165.961 58.9542 163.312 56.3203 161.375 52.9783C159.495 49.6364 158.555 45.7846 158.555 41.4231C158.555 37.0615 159.495 33.2098 161.375 29.8678C163.255 26.5258 165.876 23.9202 169.237 22.051C172.598 20.1251 176.443 19.1622 180.773 19.1622C185.16 19.1622 189.034 20.1251 192.395 22.051C195.756 23.9202 198.377 26.5258 200.257 29.8678C202.137 33.2098 203.077 37.0615 203.077 41.4231C203.077 45.7846 202.137 49.6364 200.257 52.9783C198.377 56.3203 195.756 58.9542 192.395 60.8801C189.091 62.7493 185.274 63.6839 180.944 63.6839ZM180.944 53.3182C183.052 53.3182 184.903 52.8084 186.499 51.7888C188.094 50.7692 189.319 49.3815 190.173 47.6255C191.085 45.8129 191.54 43.7455 191.54 41.4231C191.54 39.1007 191.085 37.0615 190.173 35.3056C189.262 33.493 187.98 32.0769 186.328 31.0573C184.732 30.0377 182.881 29.528 180.773 29.528C178.722 29.528 176.871 30.0377 175.219 31.0573C173.623 32.0769 172.37 33.493 171.459 35.3056C170.547 37.0615 170.091 39.1007 170.091 41.4231C170.091 43.7455 170.547 45.8129 171.459 47.6255C172.37 49.3815 173.652 50.7692 175.304 51.7888C176.956 52.8084 178.836 53.3182 180.944 53.3182Z" fill="#1F91C6"/>
<path d="M234.79 63.6839C234.05 63.6839 233.449 63.0884 233.441 62.3488L233.361 54.6405V20.5113C233.361 19.7662 233.965 19.1622 234.71 19.1622H243.532C244.285 19.1622 244.892 19.7775 244.881 20.5297L244.313 62.3532C244.303 63.091 243.701 63.6839 242.964 63.6839H234.79ZM204.426 41.4231V20.5113C204.426 19.7662 205.03 19.1622 205.775 19.1622H214.616C215.361 19.1622 215.965 19.7662 215.965 20.5113V41.4231H204.426ZM215.965 41.4231C215.965 44.3216 216.285 46.6115 216.926 48.2926C217.626 49.9158 218.587 51.1042 219.811 51.8579C221.093 52.5535 222.521 52.9013 224.095 52.9013C227.125 52.9593 229.427 52.0607 231.001 50.2057C232.574 48.2926 233.361 45.539 233.361 41.9448H237.295C237.295 46.5825 236.595 50.5245 235.197 53.7709C233.798 56.9593 231.875 59.4231 229.427 61.1622C226.98 62.8434 224.095 63.6839 220.773 63.6839C217.276 63.6839 214.304 62.9883 211.856 61.597C209.409 60.2057 207.544 58.0607 206.262 55.1622C205.038 52.2057 204.426 48.4086 204.426 43.7709V41.4231H215.965Z" fill="#1F91C6"/>
<path d="M247.598 63.684C246.853 63.684 246.249 63.0799 246.249 62.3348V1.62334C246.249 0.878233 246.853 0.2742 247.598 0.2742H255.693C256.438 0.2742 257.042 0.878233 257.042 1.62334V62.3348C257.042 63.0799 256.438 63.684 255.693 63.684H247.598Z" fill="#1F91C6"/>
<path d="M292.203 63.684C291.493 63.684 290.904 63.1331 290.857 62.4243L290.346 54.7307L290.429 1.62124C290.43 0.876951 291.034 0.2742 291.778 0.2742H300.298C301.044 0.2742 301.648 0.879335 301.647 1.62515L301.566 62.3366C301.565 63.081 300.961 63.684 300.217 63.684H292.203ZM277.598 63.684C273.689 63.684 270.29 62.7744 267.4 60.9553C264.567 59.1363 262.358 56.5498 260.771 53.1959C259.185 49.842 258.392 45.8912 258.392 41.3435C258.392 36.739 259.185 32.7882 260.771 29.4911C262.358 26.1372 264.567 23.5507 267.4 21.7316C270.29 19.9126 273.689 19.003 277.598 19.003C281.168 19.003 284.171 19.9126 286.607 21.7316C289.1 23.5507 290.998 26.1372 292.301 29.4911C293.604 32.7882 294.255 36.739 294.255 41.3435C294.255 45.8912 293.604 49.842 292.301 53.1959C290.998 56.5498 289.1 59.1363 286.607 60.9553C284.171 62.7744 281.168 63.684 277.598 63.684ZM280.488 53.3664C282.414 53.3664 284.114 52.8548 285.587 51.8316C287.117 50.8084 288.306 49.3872 289.156 47.5681C290.006 45.7491 290.431 43.6742 290.431 41.3435C290.431 39.0128 290.006 36.9379 289.156 35.1189C288.306 33.2998 287.117 31.9071 285.587 30.9407C284.114 29.9175 282.386 29.4059 280.403 29.4059C278.363 29.4059 276.578 29.9175 275.049 30.9407C273.519 31.9071 272.301 33.2998 271.394 35.1189C270.488 36.9379 270.035 39.0128 270.035 41.3435C270.035 43.6742 270.488 45.7491 271.394 47.5681C272.301 49.3872 273.519 50.8084 275.049 51.8316C276.635 52.8548 278.448 53.3664 280.488 53.3664Z" fill="#1F91C6"/>
</svg>
