<?xml version="1.0" encoding="utf-8"?>
<!-- Generator: Adobe Illustrator 25.4.1, SVG Export Plug-In . SVG Version: 6.00 Build 0)  -->
<svg version="1.1" id="Layer_1" xmlns="http://www.w3.org/2000/svg" xmlns:xlink="http://www.w3.org/1999/xlink" x="0px" y="0px"
	 viewBox="0 0 2320.12 1177.64" style="enable-background:new 0 0 2320.12 1177.64;" xml:space="preserve">
<style type="text/css">
	.st0{fill:#124442;}
	.st1{fill:#76E691;}
	.st2{fill:#55B077;}
	.st3{fill:#337A5C;}
</style>
<g>
	<path class="st0" d="M1097.8,460.29c37.93,0,68.74,13.54,92.47,40.69c23.76,27.11,33.46,59.95,29.14,98.51h-195.59
		c3.38,19.09,12.14,34.58,26.35,46.45c14.17,11.9,31.3,17.83,51.33,17.83c15.42,0,29.21-3.8,41.39-11.34s21.67-17.8,28.44-30.74
		l40.69,18.01c-10.47,20.06-25.44,36.08-44.84,48.12c-19.44,12-41.8,18.04-67.07,18.04c-35.45,0-65.18-11.72-89.23-35.17
		c-24.08-23.41-36.08-52.55-36.08-87.38c0-34.86,11.79-64.07,35.38-87.66C1033.73,472.08,1062.94,460.29,1097.8,460.29z
		 M1097.8,502.37c-17.9,0-33.39,5.48-46.48,16.4c-13.12,10.96-21.81,25.19-26.14,42.78h145.2c-3.98-17.59-12.56-31.82-25.65-42.78
		C1131.62,507.85,1115.98,502.37,1097.8,502.37z"/>
	<path class="st0" d="M1345.66,686.41l72.62-221.52h49.48l-82.77,236.31h-82.32l-82.77-236.31h52.69L1345.66,686.41z"/>
	<path class="st0" d="M1492.96,418.2c-6-5.86-9-12.95-9-21.29c0-8.31,3-15.42,9-21.29c6-5.83,13.19-8.76,21.5-8.76
		c8.34,0,15.42,2.93,21.29,8.76c5.86,5.86,8.79,12.98,8.79,21.29c0,8.34-2.93,15.42-8.79,21.29s-12.95,8.76-21.29,8.76
		C1506.15,426.96,1498.96,424.06,1492.96,418.2z M1538.49,701.2h-48.54V464.89h48.54V701.2z"/>
	<path class="st0" d="M1721.59,460.29c26.83,0,48.71,9.39,65.67,28.2s25.44,42.71,25.44,71.68V701.2h-48.54V567.55
		c0-18.18-5.86-33.22-17.59-45.08c-11.72-11.86-26.21-17.8-43.48-17.8c-19.4,0-35.28,5.93-47.63,17.8
		c-12.32,11.86-18.49,26.9-18.49,45.08V701.2h-48.54V464.89h48.54v61.03c6.49-20.34,17.2-36.36,32.14-48.09
		C1684.08,466.15,1701.56,460.29,1721.59,460.29z"/>
	<path class="st0" d="M1949.6,687.8l74.92-222.91H2074l-111,328.78h-49.48l31.48-92.47h-38.38l-80.47-236.31h52.69L1949.6,687.8z"/>
</g>
<g>
	<path class="st1" d="M793.59,716.34c19.4-39.18,27.88-83.78,23.03-127.26C802.09,466.05,700.3,359.06,579.83,334.3
		c-26.4-5.38-53.74-6.37-80.64-5.76c-90.69,1.85-184.38,40.34-212.65,133.6c-56.32,185.05,164.02,490.65,367.5,401.7
		C717.83,835.46,763.26,777.72,793.59,716.34z M799.96,719.57c-35.12,66.5-79.1,136.72-147.33,173.42
		c-65.37,35.61-141.51,26.69-204.78-9.05c-107.14-59.42-188.42-191.6-200.25-312.79c-9.97-107.26,36.74-196.9,137.02-240.29
		c35.61-15.43,73.73-24.56,111.98-30.44c42.89-6.55,86.65-9.99,129.58-0.87c97.2,18.78,179.75,97.36,203.54,193.11
		C849.73,568.44,835.72,651.21,799.96,719.57z"/>
	<path class="st2" d="M593.57,823.07c54.09-7.07,104.77-33.81,141.33-74.09c46.45-51.53,73.26-118.33,83.94-186.25
		c10.66-71.58,2.83-150.44-41.6-209.91c-31.96-42.5-78.84-68.92-130.45-79.97c-49.17-9.79-100.55-1.03-146.33,18.39
		c-85.24,36.52-162.09,107.63-185.45,199.11c-20.63,77.6-2.28,161.82,44.97,226.43C413.59,792.02,500.49,836.39,593.57,823.07z
		 M594.47,830.16c-138.02,17.12-278.04-57.63-318.22-195.27c-17.4-57.42-15.23-120.48,5.66-176.68
		c53-138.13,208.07-231.67,354.9-208.29c107.82,19,195.9,95.29,226.31,201.09c22.77,78.27,10.59,165.75-31.77,235.28
		C780.65,769.87,689.91,819.38,594.47,830.16z"/>
	<path class="st3" d="M388.49,805.58c61.49,54,139.18,86.51,221.67,81.48c136.81-6.85,241.45-123.91,233.06-261
		c-2.39-42.02-15.12-83.53-33.7-121.21c-59.38-126.58-211.63-197.43-342.47-141.97c-31.95,13.48-61.54,32.91-86.05,57.48
		c-62.49,62.27-89.3,157.27-73.41,243.69C317.44,718.65,346.63,769.24,388.49,805.58z M383.74,810.92
		C304.87,740.1,257.16,628.5,280.19,522.53c17.57-84.54,78.88-157.25,157.66-191.81c89.42-41.05,199.56-30.36,279.38,26.65
		c42.32,29.49,76.21,70.27,99.77,115.88c57.93,108.62,77.87,252.72,4.98,359.24c-32.52,47.43-83.47,82.13-139.81,94.06
		C569.1,951.73,463.73,883.87,383.74,810.92z"/>
</g>
</svg>
