<?xml version="1.0" encoding="UTF-8" standalone="no"?>
<svg
   version="1.1"
   id="svg833"
   xml:space="preserve"
   width="490"
   height="150"
   viewBox="0 0 489.99999 150"
   sodipodi:docname="logo.svg"
   inkscape:version="1.1.2 (0a00cf5339, 2022-02-04)"
   xmlns:inkscape="http://www.inkscape.org/namespaces/inkscape"
   xmlns:sodipodi="http://sodipodi.sourceforge.net/DTD/sodipodi-0.dtd"
   xmlns="http://www.w3.org/2000/svg"
   xmlns:svg="http://www.w3.org/2000/svg"
   xmlns:rdf="http://www.w3.org/1999/02/22-rdf-syntax-ns#"
   xmlns:cc="http://creativecommons.org/ns#"
   xmlns:dc="http://purl.org/dc/elements/1.1/"><metadata
     id="metadata839"><rdf:RDF><cc:Work
         rdf:about=""><dc:format>image/svg+xml</dc:format><dc:type
           rdf:resource="http://purl.org/dc/dcmitype/StillImage" /></cc:Work></rdf:RDF></metadata><defs
     id="defs837"><clipPath
       clipPathUnits="userSpaceOnUse"
       id="clipPath849"><path
         d="M 0,144.536 H 422.003 V 0 H 0 Z"
         id="path847" /></clipPath></defs><sodipodi:namedview
     pagecolor="#ffffff"
     bordercolor="#666666"
     borderopacity="1"
     objecttolerance="10"
     gridtolerance="10"
     guidetolerance="10"
     inkscape:pageopacity="0"
     inkscape:pageshadow="2"
     inkscape:window-width="1920"
     inkscape:window-height="1020"
     id="namedview835"
     showgrid="true"
     fit-margin-left="0"
     fit-margin-top="0"
     fit-margin-right="0"
     fit-margin-bottom="0"
     inkscape:zoom="1.6706043"
     inkscape:cx="244.223"
     inkscape:cy="54.7706"
     inkscape:window-x="0"
     inkscape:window-y="0"
     inkscape:window-maximized="1"
     inkscape:current-layer="g841"
     inkscape:pagecheckerboard="0"><inkscape:grid
       type="xygrid"
       id="grid208"
       originx="-2.7205772e-06"
       originy="1.3253296e-06" /></sodipodi:namedview><g
     id="g841"
     inkscape:groupmode="layer"
     inkscape:label="eyetowers_white"
     transform="matrix(1.3333333,0,0,-1.3333333,-36.798133,150.8092)"><g
       id="g851"
       transform="translate(57.1187,98.2274)"><path
         d="m 0,0 c -2.546,-2.545 -6.674,-2.545 -9.22,0 -2.546,2.546 -2.546,6.674 0,9.22 2.546,2.546 6.674,2.546 9.22,0 C 2.545,6.674 2.545,2.546 0,0"
         style="fill:#e91c24;fill-opacity:1;fill-rule:nonzero;stroke:none"
         id="path853" /></g><g
       id="g855"
       transform="translate(71.7471,83.599)"><path
         d="m 0,0 c -2.546,-2.545 -6.674,-2.545 -9.22,0 -2.545,2.546 -2.545,6.674 0,9.22 2.546,2.546 6.674,2.546 9.22,0 C 2.546,6.674 2.546,2.546 0,0"
         style="fill:#e91c24;fill-opacity:1;fill-rule:nonzero;stroke:none"
         id="path857" /></g><g
       id="g859"
       transform="translate(42.4771,83.5863)"><path
         d="m 0,0 c -2.546,-2.546 -6.674,-2.546 -9.219,0 -2.546,2.546 -2.546,6.673 0,9.219 2.545,2.546 6.673,2.546 9.219,0 C 2.546,6.673 2.546,2.546 0,0"
         style="fill:#e91c24;fill-opacity:1;fill-rule:nonzero;stroke:none"
         id="path861" /></g><g
       id="g863"
       transform="translate(57.1055,68.9574)"><path
         d="m 0,0 c -2.546,-2.546 -6.674,-2.546 -9.219,0 -2.546,2.546 -2.546,6.674 0,9.22 2.545,2.546 6.673,2.546 9.219,0 C 2.546,6.674 2.546,2.546 0,0"
         style="fill:#e91c24;fill-opacity:1;fill-rule:nonzero;stroke:none"
         id="path865" /></g><g
       id="g867"
       transform="translate(79.6172,62.8881)"
       style="fill:#4363b8;fill-opacity:1"><path
         d="M 0,0 H 15.899 C 15.239,4.079 12.179,6.72 7.979,6.72 3.72,6.72 0.66,4.14 0,0 M 24.539,-5.46 H 0.12 c 0.9,-4.02 4.319,-6.48 9.239,-6.48 3.42,0 5.88,1.02 8.1,3.12 l 4.98,-5.4 c -3,-3.42 -7.5,-5.219 -13.319,-5.219 -11.16,0 -18.42,7.019 -18.42,16.619 0,9.659 7.38,16.619 17.219,16.619 9.48,0 16.8,-6.36 16.8,-16.739 0,-0.72 -0.12,-1.741 -0.18,-2.52"
         style="fill:#4363b8;fill-opacity:1;fill-rule:nonzero;stroke:none"
         id="path869" /></g><g
       id="g871"
       transform="translate(142.0161,76.2069)"
       style="fill:#4363b8;fill-opacity:1"><path
         d="m 0,0 -14.579,-34.258 c -3.12,-7.8 -7.56,-10.14 -13.379,-10.14 -3.301,0 -6.9,1.08 -9,2.94 l 3.419,6.66 c 1.44,-1.26 3.42,-2.04 5.28,-2.04 2.58,0 4.02,1.139 5.28,4.019 l 0.12,0.301 L -36.838,0 h 9.659 l 9.06,-21.899 L -9,0 Z"
         style="fill:#4363b8;fill-opacity:1;fill-rule:nonzero;stroke:none"
         id="path873" /></g><g
       id="g875"
       transform="translate(151.8569,62.8881)"
       style="fill:#4363b8;fill-opacity:1"><path
         d="M 0,0 H 15.899 C 15.239,4.079 12.179,6.72 7.979,6.72 3.72,6.72 0.66,4.14 0,0 M 24.539,-5.46 H 0.12 c 0.9,-4.02 4.319,-6.48 9.239,-6.48 3.42,0 5.88,1.02 8.1,3.12 l 4.98,-5.4 c -3,-3.42 -7.5,-5.219 -13.319,-5.219 -11.16,0 -18.42,7.019 -18.42,16.619 0,9.659 7.38,16.619 17.219,16.619 9.48,0 16.8,-6.36 16.8,-16.739 0,-0.72 -0.12,-1.741 -0.18,-2.52"
         style="fill:#4363b8;fill-opacity:1;fill-rule:nonzero;stroke:none"
         id="path877" /></g><g
       id="g879"
       transform="translate(203.6362,45.4887)"
       style="fill:#4363b8;fill-opacity:1"><path
         d="m 0,0 c -1.92,-1.38 -4.74,-2.04 -7.62,-2.04 -7.62,0 -12.059,3.899 -12.059,11.579 v 13.26 h -4.98 v 7.199 h 4.98 v 7.86 h 9.359 v -7.86 h 8.04 v -7.199 h -8.04 V 9.659 c 0,-2.76 1.5,-4.26 4.02,-4.26 1.38,0 2.76,0.42 3.78,1.201 z"
         style="fill:#4363b8;fill-opacity:1;fill-rule:nonzero;stroke:none"
         id="path881" /></g><g
       id="g883"
       transform="translate(231.4766,60.0678)"
       style="fill:#4363b8;fill-opacity:1"><path
         d="M 0,0 C 0,5.58 -3.541,8.939 -8.221,8.939 -12.9,8.939 -16.5,5.58 -16.5,0 c 0,-5.58 3.6,-8.939 8.279,-8.939 C -3.541,-8.939 0,-5.58 0,0 m -25.979,0 c 0,9.72 7.499,16.619 17.758,16.619 10.26,0 17.7,-6.899 17.7,-16.619 0,-9.72 -7.44,-16.619 -17.7,-16.619 -10.259,0 -17.758,6.899 -17.758,16.619"
         style="fill:#4363b8;fill-opacity:1;fill-rule:nonzero;stroke:none"
         id="path885" /></g><g
       id="g887"
       transform="translate(298.1348,76.2069)"
       style="fill:#4363b8;fill-opacity:1"><path
         d="m 0,0 -11.7,-32.279 h -8.999 l -7.26,20.039 -7.499,-20.039 h -9 L -56.098,0 h 8.82 l 7.62,-21.839 L -31.739,0 h 7.92 L -16.14,-21.839 -8.28,0 Z"
         style="fill:#4363b8;fill-opacity:1;fill-rule:nonzero;stroke:none"
         id="path889" /></g><g
       id="g891"
       transform="translate(308.5166,62.8881)"
       style="fill:#4363b8;fill-opacity:1"><path
         d="M 0,0 H 15.899 C 15.239,4.079 12.18,6.72 7.979,6.72 3.72,6.72 0.66,4.14 0,0 M 24.539,-5.46 H 0.119 c 0.901,-4.02 4.32,-6.48 9.24,-6.48 3.42,0 5.88,1.02 8.1,3.12 l 4.98,-5.4 c -3,-3.42 -7.5,-5.219 -13.32,-5.219 -11.159,0 -18.419,7.019 -18.419,16.619 0,9.659 7.38,16.619 17.22,16.619 9.478,0 16.799,-6.36 16.799,-16.739 0,-0.72 -0.12,-1.741 -0.18,-2.52"
         style="fill:#4363b8;fill-opacity:1;fill-rule:nonzero;stroke:none"
         id="path893" /></g><g
       id="g895"
       transform="translate(359.5156,76.6869)"
       style="fill:#4363b8;fill-opacity:1"><path
         d="m 0,0 v -8.64 c -0.78,0.061 -1.38,0.12 -2.1,0.12 -5.16,0 -8.58,-2.82 -8.58,-9 v -15.239 h -9.359 V -0.48 H -11.1 V -4.74 C -8.819,-1.62 -4.979,0 0,0"
         style="fill:#4363b8;fill-opacity:1;fill-rule:nonzero;stroke:none"
         id="path897" /></g><g
       id="g899"
       transform="translate(362.0967,46.9281)"
       style="fill:#4363b8;fill-opacity:1"><path
         d="M 0,0 3.119,6.72 C 6,4.86 10.379,3.6 14.34,3.6 c 4.319,0 5.939,1.14 5.939,2.94 0,5.279 -19.5,-0.12 -19.5,12.779 0,6.12 5.52,10.44 14.94,10.44 4.44,0 9.359,-1.02 12.42,-2.82 l -3.12,-6.66 c -3.18,1.8 -6.36,2.401 -9.3,2.401 -4.199,0 -6,-1.321 -6,-3 0,-5.521 19.5,-0.181 19.5,-12.9 0,-6 -5.58,-10.259 -15.24,-10.259 C 8.52,-3.479 3,-1.979 0,0"
         style="fill:#4363b8;fill-opacity:1;fill-rule:nonzero;stroke:none"
         id="path901" /></g></g></svg>
