<svg
  width="116"
  height="24"
  viewBox="0 0 116 24"
  fill="none"
  xmlns="http://www.w3.org/2000/svg"
>
  <path
    d="M88.2423 0L81.5543 10.4603L74.8417 0H69.4797V24H74.8417V9.9226L78.7136 16H84.3539L88.2423 9.90631V24H93.6123V0H88.2423Z"
    fill="#162440"
  />
  <path
    d="M15.3693 5.32791L18.6961 0H0V5.31161V10.6314V15.943V24H5.38004V16H15.3693L15.3528 10.664H5.38004V5.32791H15.3693Z"
    fill="#162440"
  />
  <path
    d="M30.9619 0C24.335 0 18.9619 5.37313 18.9619 12C18.9619 18.6269 24.335 24 30.9619 24C37.5888 24 42.9619 18.6269 42.9619 12C42.9619 5.37313 37.5888 0 30.9619 0ZM30.9619 18.4478C27.2821 18.4478 24.2943 15.46 24.2943 11.7802C24.2943 8.10041 27.2821 5.11262 30.9619 5.11262C34.6417 5.11262 37.6295 8.10041 37.6295 11.7802C37.6295 15.46 34.6417 18.4478 30.9619 18.4478Z"
    fill="#162440"
  />
  <path
    d="M64.9151 12.9043C65.6225 11.8941 66.0255 10.6721 66.1078 9.22199C66.1572 8.68431 66.1736 8.09776 66.1243 7.48676C65.9351 5.11608 65.532 3.68227 64.0514 2.07739C62.5133 0.407331 60.7776 0.0570265 58.7377 0H51.5485H46.2759V24H51.6637V16H55.941L60.0455 24H66.1654L61.1478 15.3564C62.7436 14.8838 64.0843 14.1018 64.9151 12.9043ZM58.0221 10.8921C58.0139 10.9002 51.6637 10.8921 51.6637 10.8921V5.09164H57.7918C57.8246 5.09164 58.2112 5.10794 58.2442 5.11608C59.6754 5.28717 60.794 6.50101 60.794 7.99185C60.7858 9.556 59.5602 10.8187 58.0221 10.8921Z"
    fill="#162440"
  />
  <path
    d="M102.099 14.7032H96.9272C96.9272 19.8376 101.113 24 106.275 24C111.438 24 115.623 19.8376 115.623 14.7032C115.623 11.3962 113.887 8.49253 111.272 6.84448L108.508 11.1919C109.676 11.9282 110.452 13.2256 110.452 14.7032C110.452 16.9974 108.582 18.8571 106.275 18.8571C103.969 18.8571 102.099 16.9974 102.099 14.7032Z"
    fill="#00CDCD"
  />
  <path
    d="M112.242 5.31959H96.9272V0H115.623L112.242 5.31959Z"
    fill="#00CDCD"
  />
</svg>
