<svg xmlns="http://www.w3.org/2000/svg" width="2500" height="830" viewBox="0 0 236.371 78.465"><g fill="#69B40F"><path d="M216.714 66.32c-12.512.086-24.354.185-27.655-.111-6.681-.579-11.146-4.95-11.662-11.383-.354-4.219-.354-7.716-.022-11.044.608-6.261 5.848-12.229 11.686-12.51 2.09-.114 7.688-.101 17.818-.061l29.492.061V19.039s-23.49-.027-30.552-.059c-9.481-.043-14.252-.049-17.272.059-6.646.252-12.217 2.619-16.549 7.018-4.099 4.151-6.545 10.758-6.908 17.447-.205 3.606-.275 8.322 0 11.125.682 7.19 3.008 12.835 6.908 16.789 4.172 4.246 10.521 6.934 16.555 7.02 4.951.062 47.818 0 47.818 0v-12.23s-13.023.053-19.657.112zM83.584 19.689V31.91h29.095v46.311h12.283V31.91h29.101V19.689H83.584zM70.828 42.802c-.09-6.58-2.408-12.229-6.912-16.793-4.693-4.775-11.86-6.761-16.547-7.011-4.076-.229-20.141-.157-23.914 0-5.313.226-9.187 1.81-11.126 3.258-.02.013-.04.007-.04-.023V.002H0V78.44h12.268s-.239-32.107.034-35.602c.488-6.217 5.204-11.098 11.212-11.625 4.823-.413 19.291-.3 23.827.01 6.234.429 10.834 5.301 11.197 11.86.119 2.415-.007 35.356-.007 35.356h12.296c.001-.001.033-32.813.001-35.637z"/></g></svg>