<?xml version="1.0" encoding="UTF-8"?>
<svg width="286px" height="48px" viewBox="0 0 286 48" version="1.1" xmlns="http://www.w3.org/2000/svg" xmlns:xlink="http://www.w3.org/1999/xlink">
    <!-- Generator: Sketch 50.2 (55047) - http://www.bohemiancoding.com/sketch -->
    <title>Page 1</title>
    <desc>Created with Sketch.</desc>
    <defs>
        <polygon id="path-1" points="0 0.4734 47.5270028 0.4734 47.5270028 48 0 48"></polygon>
        <polygon id="path-3" points="0 48.5265 286 48.5265 286 0.9995 0 0.9995"></polygon>
    </defs>
    <g id="Symbols" stroke="none" stroke-width="1" fill="none" fill-rule="evenodd">
        <g id="Main-Nav" transform="translate(0.000000, -1.000000)">
            <g id="Page-1">
                <g id="Group-3" transform="translate(0.000000, 0.526500)">
                    <mask id="mask-2" fill="white">
                        <use xlink:href="#path-1"></use>
                    </mask>
                    <g id="Clip-2"></g>
                    <path d="M23.771,48.0004 L23.764,48.0004 C22.292,48.0004 20.82,47.8634 19.374,47.5934 L22.401,41.8254 L31.342,24.7814 L37.624,24.7814 L29.776,39.7404 L28.607,41.9694 L30.92,40.9784 C33.055,40.0634 34.976,38.7604 36.633,37.1064 C40.07,33.6634 41.963,29.0934 41.964,24.2364 C41.964,23.0164 41.843,21.7964 41.604,20.6134 C41.01,17.6694 39.68,14.9054 37.742,12.5834 L40.487,7.3534 C40.513,7.3794 40.541,7.4074 40.568,7.4344 C42.097,8.9614 43.413,10.6964 44.48,12.5904 C46.476,16.1354 47.529,20.1624 47.527,24.2364 C47.529,30.5884 45.057,36.5554 40.568,41.0404 C36.654,44.9584 31.466,47.3944 25.957,47.8984 C25.221,47.9664 24.485,48.0004 23.771,48.0004 Z M15.261,46.4314 C13.525,45.7664 11.873,44.8974 10.336,43.8444 L13.445,37.9194 L29.16,7.9654 L30.719,4.9954 L32.737,1.1454 L39.021,1.1454 L37.554,3.9384 L34.084,10.5554 L18.369,40.5094 L15.261,46.4314 Z M7.043,41.1214 C7.015,41.0944 6.988,41.0664 6.959,41.0394 C5.43,39.5114 4.113,37.7764 3.047,35.8834 C1.053,32.3384 -0.001,28.3124 1.05879118e-22,24.2364 C-0.001,17.8844 2.471,11.9174 6.959,7.4344 C10.874,3.5164 16.061,1.0814 21.571,0.5754 C22.308,0.5084 23.045,0.4734 23.764,0.4734 C25.236,0.4734 26.709,0.6104 28.155,0.8814 L25.411,6.1104 C24.866,6.0624 24.314,6.0384 23.765,6.0364 C21.276,6.0384 18.869,6.5294 16.608,7.4974 C14.475,8.4114 12.552,9.7124 10.896,11.3674 C7.459,14.8104 5.565,19.3814 5.564,24.2364 C5.564,25.4594 5.686,26.6784 5.924,27.8604 L6.422,30.3304 L7.592,28.0994 L15.877,12.3074 L22.16,12.3074 L10.069,35.3534 L7.043,41.1214 Z" id="Fill-1" fill="#16A500" mask="url(#mask-2)"></path>
                </g>
                <path d="M61.687,15.4087 L61.687,17.6527 L61.751,17.6527 C62.36,16.7867 63.065,16.1457 63.931,15.6647 C64.765,15.1837 65.726,14.9597 66.816,14.9597 C67.874,14.9597 68.836,15.1527 69.702,15.5687 C70.567,15.9857 71.208,16.6907 71.657,17.7167 C72.138,16.9797 72.812,16.3387 73.677,15.7937 C74.51,15.2487 75.504,14.9597 76.658,14.9597 C77.524,14.9597 78.357,15.0557 79.095,15.2807 C79.832,15.5047 80.474,15.8257 81.019,16.3057 C81.563,16.7867 81.98,17.3967 82.269,18.1337 C82.557,18.9037 82.718,19.8327 82.718,20.8907 L82.718,31.9827 L78.165,31.9827 L78.165,22.5897 C78.165,22.0447 78.133,21.4997 78.101,21.0187 C78.069,20.5377 77.941,20.0897 77.749,19.7367 C77.556,19.3847 77.268,19.0957 76.915,18.8707 C76.53,18.6467 76.017,18.5507 75.376,18.5507 C74.735,18.5507 74.222,18.6787 73.837,18.9037 C73.42,19.1597 73.132,19.4807 72.907,19.8647 C72.683,20.2817 72.523,20.7307 72.458,21.2117 C72.362,21.7237 72.331,22.2377 72.331,22.7497 L72.331,31.9827 L67.778,31.9827 L67.778,22.6857 C67.778,22.2047 67.778,21.6927 67.746,21.2117 C67.714,20.7307 67.65,20.3137 67.49,19.8967 C67.329,19.4807 67.041,19.1597 66.688,18.9037 C66.303,18.6787 65.758,18.5507 65.021,18.5507 C64.796,18.5507 64.54,18.5827 64.187,18.6787 C63.835,18.7747 63.482,18.9677 63.162,19.2237 C62.809,19.5127 62.52,19.8967 62.296,20.3777 C62.072,20.8907 61.943,21.5637 61.943,22.3657 L61.943,31.9827 L57.391,31.9827 L57.391,15.4087 L61.687,15.4087 Z" id="Fill-4" fill="#444444"></path>
                <path d="M96.6309,25.5713 C96.6309,25.8273 96.5989,26.1803 96.5669,26.5973 C96.5029,27.0143 96.3419,27.4313 96.1179,27.8473 C95.8939,28.2643 95.5089,28.6493 95.0279,28.9383 C94.5469,29.2263 93.8419,29.3863 92.9439,29.3863 C92.5909,29.3863 92.2389,29.3543 91.8859,29.2903 C91.5339,29.2263 91.2449,29.0983 90.9879,28.9383 C90.7319,28.7783 90.5399,28.5843 90.3799,28.2963 C90.2189,28.0073 90.1549,27.6873 90.1549,27.2713 C90.1549,26.8543 90.2189,26.5013 90.3799,26.2123 C90.5399,25.9243 90.7319,25.6993 90.9879,25.5073 C91.2129,25.3463 91.5019,25.1863 91.8539,25.0903 C92.1749,24.9943 92.4949,24.8983 92.8479,24.8343 C93.2009,24.7703 93.5859,24.7063 93.9379,24.6743 C94.2909,24.6413 94.6429,24.5773 94.9959,24.5133 C95.3169,24.4493 95.6369,24.3533 95.9259,24.2573 C96.2139,24.1603 96.4389,24.0323 96.6309,23.8723 L96.6309,25.5713 Z M90.6679,20.5063 C90.7639,19.6083 91.0529,18.9673 91.5659,18.5823 C92.0789,18.1973 92.7839,18.0053 93.6819,18.0053 C94.0979,18.0053 94.4829,18.0373 94.8359,18.0703 C95.1879,18.1343 95.4769,18.2303 95.7649,18.3903 C96.0219,18.5503 96.2459,18.7753 96.4069,19.0633 C96.5669,19.3523 96.6309,19.7683 96.6309,20.2493 C96.6629,20.7303 96.5029,21.0833 96.2139,21.3073 C95.9259,21.5643 95.5089,21.7563 94.9959,21.8843 C94.4829,22.0123 93.9059,22.1093 93.2329,22.1733 C92.5599,22.2373 91.8859,22.3333 91.2129,22.4293 C90.5399,22.5263 89.8659,22.6863 89.1939,22.8463 C88.5199,23.0383 87.9109,23.3273 87.3979,23.6793 C86.8529,24.0323 86.4359,24.5133 86.1159,25.1223 C85.7629,25.7323 85.6029,26.5323 85.6029,27.4623 C85.6029,28.3283 85.7629,29.0663 86.0509,29.6753 C86.3399,30.2833 86.7249,30.7973 87.2379,31.2133 C87.7509,31.6303 88.3599,31.9193 89.0329,32.1123 C89.7059,32.3043 90.4439,32.4003 91.2449,32.4003 C92.2709,32.4003 93.2649,32.2393 94.2579,31.9503 C95.2529,31.6623 96.0859,31.1173 96.8229,30.3803 C96.8559,30.6683 96.8869,30.9253 96.9519,31.1823 C96.9839,31.4703 97.0479,31.7273 97.1439,31.9833 L101.7599,31.9833 C101.5359,31.6303 101.4079,31.1173 101.3119,30.4453 C101.2149,29.7713 101.1829,29.0333 101.1829,28.2963 L101.1829,19.6723 C101.1829,18.6783 100.9589,17.8453 100.5099,17.2363 C100.0609,16.6273 99.4849,16.1783 98.7789,15.8253 C98.0739,15.4723 97.3039,15.2483 96.4389,15.1203 C95.5729,15.0243 94.7389,14.9603 93.9059,14.9603 C92.9759,14.9603 92.0789,15.0563 91.1809,15.2163 C90.2509,15.4083 89.4499,15.7293 88.7129,16.1463 C87.9749,16.5633 87.3979,17.1393 86.9169,17.8453 C86.4359,18.5503 86.1799,19.4483 86.1159,20.5063 L90.6679,20.5063 Z" id="Fill-6" fill="#444444"></path>
                <path d="M112.6279,18.3902 C111.8909,18.3902 111.2809,18.5502 110.7999,18.8712 C110.3199,19.2232 109.9029,19.6402 109.6139,20.1532 C109.2939,20.6982 109.0689,21.2752 108.9409,21.8852 C108.8129,22.5262 108.7489,23.1672 108.7489,23.7762 C108.7489,24.3852 108.8129,24.9942 108.9409,25.6032 C109.0689,26.2122 109.2939,26.7892 109.5829,27.2712 C109.8709,27.7842 110.2549,28.2002 110.7359,28.5212 C111.2169,28.8412 111.8269,29.0012 112.5319,29.0012 C113.6219,29.0012 114.4549,28.6812 115.0649,28.0722 C115.6419,27.4622 115.9939,26.6612 116.1539,25.6352 L120.5459,25.6352 C120.2579,27.8472 119.3919,29.5152 117.9819,30.6682 C116.5709,31.8232 114.7759,32.4002 112.5639,32.4002 C111.3139,32.4002 110.1909,32.1752 109.1659,31.7592 C108.1069,31.3422 107.2419,30.7652 106.5049,30.0282 C105.7669,29.2902 105.2219,28.3932 104.8059,27.3342 C104.3889,26.3092 104.1959,25.1862 104.1959,23.9362 C104.1959,22.6542 104.3889,21.4682 104.7739,20.3462 C105.1259,19.2562 105.6709,18.2942 106.4079,17.4932 C107.1459,16.6912 108.0109,16.0822 109.0689,15.6332 C110.1279,15.1842 111.3139,14.9602 112.6599,14.9602 C113.6539,14.9602 114.5839,15.0882 115.5129,15.3452 C116.4109,15.6012 117.2119,15.9862 117.9499,16.4982 C118.6549,17.0432 119.2319,17.6852 119.6809,18.4542 C120.1299,19.2562 120.3859,20.1852 120.4499,21.2432 L115.9939,21.2432 C115.7059,19.3522 114.5839,18.3902 112.6279,18.3902" id="Fill-8" fill="#444444"></path>
                <path d="M127.6631,9.0933 L127.6631,17.7173 L127.7591,17.7173 C128.3361,16.7553 129.0741,16.0503 129.9711,15.6013 C130.8691,15.1843 131.7341,14.9603 132.6001,14.9603 C133.8181,14.9603 134.8121,15.1203 135.6141,15.4413 C136.3831,15.7933 136.9921,16.2423 137.4411,16.8193 C137.8901,17.4283 138.2101,18.1343 138.4031,18.9673 C138.5631,19.8333 138.6591,20.7623 138.6591,21.7883 L138.6591,31.9833 L134.1071,31.9833 L134.1071,22.6223 C134.1071,21.2433 133.8831,20.2183 133.4661,19.5443 C133.0491,18.8713 132.2801,18.5503 131.1891,18.5503 C129.9391,18.5503 129.0411,18.9033 128.4961,19.6403 C127.9521,20.3783 127.6631,21.5963 127.6631,23.2953 L127.6631,31.9833 L123.1111,31.9833 L123.1111,9.0933 L127.6631,9.0933 Z" id="Fill-10" fill="#444444"></path>
                <mask id="mask-4" fill="white">
                    <use xlink:href="#path-3"></use>
                </mask>
                <g id="Clip-13"></g>
                <path d="M142.25,31.9825 L146.802,31.9825 L146.802,15.4085 L142.25,15.4085 L142.25,31.9825 Z M142.25,12.8435 L146.802,12.8435 L146.802,9.0935 L142.25,9.0935 L142.25,12.8435 Z" id="Fill-12" fill="#444444" mask="url(#mask-4)"></path>
                <path d="M154.7197,15.4087 L154.7197,17.7167 L154.8167,17.7167 C155.3937,16.7557 156.1307,16.0497 157.0607,15.6007 C157.9907,15.1837 158.9197,14.9597 159.8817,14.9597 C161.0997,14.9597 162.0937,15.1197 162.8957,15.4407 C163.6647,15.7937 164.2737,16.2417 164.7227,16.8197 C165.1717,17.4287 165.4917,18.1337 165.6847,18.9677 C165.8447,19.8327 165.9407,20.7627 165.9407,21.7887 L165.9407,31.9827 L161.3887,31.9827 L161.3887,22.6217 C161.3887,21.2427 161.1637,20.2177 160.7467,19.5447 C160.3297,18.8707 159.5617,18.5507 158.4707,18.5507 C157.2207,18.5507 156.3237,18.9037 155.7787,19.6407 C155.2337,20.3777 154.9447,21.5957 154.9447,23.2957 L154.9447,31.9827 L150.3927,31.9827 L150.3927,15.4087 L154.7197,15.4087 Z" id="Fill-14" fill="#444444" mask="url(#mask-4)"></path>
                <path d="M174.2754,28.0074 C174.9494,28.6814 175.9424,29.0014 177.2254,29.0014 C178.1554,29.0014 178.9244,28.7784 179.5974,28.2964 C180.2704,27.8474 180.6554,27.3664 180.8154,26.8544 L184.8234,26.8544 C184.1814,28.8414 183.1884,30.2524 181.8744,31.1174 C180.5594,31.9834 178.9564,32.4004 177.0644,32.4004 C175.7504,32.4004 174.5964,32.1754 173.5384,31.7594 C172.4804,31.3424 171.6154,30.7654 170.8784,29.9954 C170.1394,29.2264 169.5944,28.2964 169.2114,27.2384 C168.7944,26.1804 168.6014,24.9944 168.6014,23.7124 C168.6014,22.4624 168.7944,21.3074 169.2114,20.2494 C169.6274,19.1924 170.2044,18.2624 170.9414,17.4604 C171.6784,16.6914 172.5774,16.0824 173.6344,15.6324 C174.6604,15.1844 175.8144,14.9604 177.0644,14.9604 C178.4754,14.9604 179.6934,15.2164 180.7524,15.7614 C181.8094,16.3064 182.6744,17.0434 183.3484,17.9734 C184.0214,18.9034 184.5034,19.9294 184.7914,21.1154 C185.0804,22.3014 185.2084,23.5194 185.1114,24.8014 L173.1534,24.8014 C173.2174,26.2774 173.6024,27.3344 174.2754,28.0074 M179.4374,19.2874 C178.8924,18.6784 178.0584,18.3904 176.9364,18.3904 C176.1994,18.3904 175.6224,18.5184 175.1414,18.7424 C174.6604,18.9994 174.2754,19.3194 173.9874,19.6724 C173.6984,20.0254 173.4744,20.4094 173.3784,20.8264 C173.2504,21.2434 173.1854,21.5964 173.1534,21.9164 L180.5594,21.9164 C180.3354,20.7624 179.9824,19.8974 179.4374,19.2874" id="Fill-15" fill="#444444" mask="url(#mask-4)"></path>
                <path d="M189.8564,15.441 L189.8564,18.23 L189.9524,18.23 C190.4984,17.204 191.2034,16.403 192.0684,15.826 C192.9334,15.249 194.0244,14.96 195.3704,14.96 C196.4604,14.96 197.4544,15.216 198.3514,15.761 C199.2174,16.306 199.8274,17.108 200.1154,18.198 C200.5964,17.108 201.3344,16.306 202.2944,15.761 C203.2564,15.216 204.2834,14.96 205.3734,14.96 C209.0274,14.96 210.8554,16.883 210.8554,20.763 L210.8554,31.983 L208.8354,31.983 L208.8354,20.859 C208.8354,19.481 208.5464,18.454 207.9694,17.717 C207.3924,17.012 206.3674,16.659 204.9234,16.659 C204.0584,16.659 203.3214,16.819 202.7444,17.14 C202.1674,17.493 201.7184,17.941 201.3654,18.486 C201.0124,19.031 200.7884,19.672 200.6604,20.378 C200.5004,21.115 200.4354,21.853 200.4354,22.622 L200.4354,31.983 L198.4164,31.983 L198.4164,20.763 C198.4164,20.218 198.3514,19.672 198.2554,19.16 C198.1274,18.679 197.9354,18.23 197.6784,17.845 C197.3904,17.493 197.0384,17.204 196.5884,16.98 C196.1394,16.755 195.5944,16.659 194.9544,16.659 C194.0874,16.659 193.3504,16.819 192.7424,17.108 C192.1004,17.428 191.5874,17.845 191.2034,18.39 C190.7864,18.935 190.4984,19.576 190.3054,20.314 C190.1134,21.051 190.0164,21.885 190.0164,22.75 L190.0164,31.983 L187.9974,31.983 L187.9974,15.441 L189.8564,15.441 Z" id="Fill-16" fill="#444444" mask="url(#mask-4)"></path>
                <path d="M216.209,26.5015 C216.401,27.3025 216.722,28.0075 217.17,28.6165 C217.619,29.2265 218.196,29.7385 218.869,30.1555 C219.543,30.5725 220.376,30.7655 221.338,30.7655 C222.813,30.7655 223.967,30.3805 224.801,29.6105 C225.634,28.8415 226.211,27.8155 226.531,26.5325 L228.552,26.5325 C228.135,28.4245 227.333,29.8675 226.211,30.8935 C225.057,31.9195 223.422,32.4325 221.338,32.4325 C220.023,32.4325 218.901,32.2075 217.972,31.7275 C217.01,31.2775 216.241,30.6375 215.632,29.8355 C215.022,29.0335 214.605,28.1045 214.317,27.0465 C214.028,25.9875 213.868,24.8975 213.868,23.7115 C213.868,22.6225 214.028,21.5645 214.317,20.5055 C214.605,19.4485 215.022,18.5185 215.632,17.6855 C216.241,16.8835 217.01,16.2095 217.972,15.6975 C218.901,15.2165 220.023,14.9595 221.338,14.9595 C222.652,14.9595 223.807,15.2165 224.736,15.7615 C225.666,16.3065 226.436,16.9795 227.045,17.8455 C227.622,18.7105 228.038,19.7045 228.295,20.8265 C228.552,21.9485 228.647,23.1035 228.615,24.2565 L215.888,24.2565 C215.888,24.9945 215.984,25.7315 216.209,26.5015 M226.211,20.3455 C225.955,19.6405 225.602,18.9995 225.153,18.4545 C224.704,17.9095 224.159,17.4925 223.518,17.1395 C222.877,16.8195 222.14,16.6595 221.338,16.6595 C220.505,16.6595 219.768,16.8195 219.126,17.1395 C218.484,17.4925 217.939,17.9095 217.491,18.4545 C217.042,18.9995 216.689,19.6405 216.433,20.3455 C216.145,21.0835 215.984,21.8205 215.888,22.5585 L226.596,22.5585 C226.563,21.7885 226.436,21.0515 226.211,20.3455" id="Fill-17" fill="#444444" mask="url(#mask-4)"></path>
                <path d="M237.9121,15.441 L237.9121,17.14 L234.5461,17.14 L234.5461,28.296 C234.5461,28.969 234.6421,29.483 234.8351,29.836 C234.9951,30.22 235.4441,30.445 236.1821,30.476 C236.7581,30.476 237.3351,30.445 237.9121,30.38 L237.9121,32.08 C237.6241,32.08 237.3041,32.08 237.0151,32.112 C236.7261,32.143 236.4051,32.143 236.1171,32.143 C234.7701,32.143 233.8411,31.887 233.2961,31.342 C232.7511,30.829 232.4941,29.868 232.5261,28.457 L232.5261,17.14 L229.6411,17.14 L229.6411,15.441 L232.5261,15.441 L232.5261,10.472 L234.5461,10.472 L234.5461,15.441 L237.9121,15.441 Z" id="Fill-18" fill="#444444" mask="url(#mask-4)"></path>
                <path d="M242.6885,15.441 L242.6885,19.32 L242.7525,19.32 C243.2655,17.974 244.0675,16.948 245.1575,16.21 C246.2155,15.473 247.4985,15.152 249.0045,15.216 L249.0045,17.236 C248.0755,17.204 247.2415,17.3 246.5035,17.589 C245.7665,17.877 245.1255,18.294 244.5805,18.839 C244.0355,19.384 243.5865,19.993 243.2975,20.731 C243.0095,21.468 242.8495,22.301 242.8495,23.167 L242.8495,31.983 L240.8295,31.983 L240.8295,15.441 L242.6885,15.441 Z" id="Fill-19" fill="#444444" mask="url(#mask-4)"></path>
                <path d="M250.959,31.9825 L252.979,31.9825 L252.979,15.4405 L250.959,15.4405 L250.959,31.9825 Z M250.959,12.3315 L252.979,12.3315 L252.979,9.0935 L250.959,9.0935 L250.959,12.3315 Z" id="Fill-20" fill="#444444" mask="url(#mask-4)"></path>
                <path d="M266.9893,17.7168 C266.2523,17.0118 265.1933,16.6588 263.8473,16.6588 C262.8853,16.6588 262.0523,16.8518 261.3143,17.2678 C260.5773,17.6848 260.0003,18.1978 259.5193,18.8708 C259.0383,19.5448 258.6533,20.2818 258.4293,21.1148 C258.1733,21.9808 258.0453,22.8458 258.0453,23.7118 C258.0453,24.5778 258.1733,25.4438 258.4293,26.2768 C258.6533,27.1418 259.0383,27.8798 259.5193,28.5528 C260.0003,29.2258 260.5773,29.7388 261.3143,30.1558 C262.0523,30.5728 262.8853,30.7648 263.8473,30.7648 C264.4563,30.7648 265.0653,30.6368 265.6103,30.4128 C266.1553,30.1878 266.6683,29.8358 267.0853,29.4188 C267.5023,29.0018 267.8543,28.5208 268.1433,27.9438 C268.4313,27.3668 268.5923,26.7248 268.6563,26.0518 L270.6763,26.0518 C270.3873,28.0718 269.6493,29.6108 268.4643,30.7328 C267.2773,31.8548 265.7383,32.4318 263.8473,32.4318 C262.5963,32.4318 261.4743,32.2078 260.5123,31.7268 C259.5193,31.2778 258.7183,30.6688 258.0453,29.8678 C257.3713,29.0658 256.8903,28.1358 256.5383,27.0788 C256.1853,26.0198 256.0243,24.8978 256.0243,23.7118 C256.0243,22.5258 256.1853,21.3718 256.5383,20.3138 C256.8903,19.2558 257.3713,18.3588 258.0453,17.5568 C258.7183,16.7558 259.5193,16.1458 260.5123,15.6648 C261.4743,15.1838 262.5963,14.9598 263.8473,14.9598 C265.6103,14.9598 267.1173,15.4408 268.3673,16.3708 C269.5863,17.2998 270.3233,18.7428 270.5483,20.6338 L268.5273,20.6338 C268.2393,19.3838 267.7263,18.4228 266.9893,17.7168" id="Fill-21" fill="#444444" mask="url(#mask-4)"></path>
                <path d="M283.0186,18.647 C282.7936,18.198 282.4736,17.813 282.0886,17.525 C281.6716,17.236 281.2236,17.012 280.7096,16.852 C280.1976,16.723 279.6526,16.659 279.0756,16.659 C278.6256,16.659 278.1776,16.691 277.7286,16.787 C277.2476,16.883 276.8316,17.043 276.4466,17.268 C276.0616,17.493 275.7416,17.813 275.5166,18.166 C275.2916,18.519 275.1646,18.967 275.1646,19.512 C275.1646,19.961 275.2916,20.346 275.5166,20.634 C275.7416,20.955 275.9976,21.211 276.3506,21.436 C276.7036,21.66 277.0556,21.82 277.4726,21.949 C277.8886,22.109 278.2416,22.205 278.5946,22.301 L281.2876,22.911 C281.8646,23.007 282.4416,23.135 283.0186,23.359 C283.5636,23.584 284.0766,23.904 284.5256,24.257 C284.9426,24.61 285.2946,25.059 285.5826,25.604 C285.8726,26.149 285.9996,26.757 285.9996,27.495 C285.9996,28.393 285.8076,29.162 285.3906,29.771 C284.9736,30.413 284.4606,30.925 283.8516,31.31 C283.2106,31.727 282.5056,32.015 281.7046,32.175 C280.9026,32.335 280.1326,32.432 279.3636,32.432 C277.4086,32.432 275.8366,31.983 274.6516,31.053 C273.4326,30.124 272.7276,28.649 272.5676,26.629 L274.5866,26.629 C274.6826,28.007 275.1646,29.034 276.0936,29.707 C276.9916,30.413 278.1136,30.765 279.4596,30.765 C279.9406,30.765 280.4546,30.701 280.9986,30.605 C281.5116,30.508 281.9926,30.316 282.4416,30.06 C282.8906,29.803 283.2746,29.483 283.5636,29.066 C283.8516,28.681 283.9806,28.2 283.9806,27.624 C283.9806,27.142 283.8836,26.725 283.6916,26.373 C283.4666,26.052 283.2106,25.764 282.8586,25.54 C282.5056,25.315 282.1216,25.155 281.7046,24.994 C281.2546,24.834 280.8066,24.706 280.3576,24.61 L277.7606,24.033 C277.0876,23.873 276.4786,23.648 275.9336,23.423 C275.3886,23.199 274.9076,22.942 274.4916,22.59 C274.0746,22.27 273.7216,21.853 273.4976,21.372 C273.2726,20.891 273.1446,20.314 273.1446,19.608 C273.1446,18.775 273.3366,18.07 273.7216,17.46 C274.0746,16.852 274.5546,16.371 275.1646,16.018 C275.7736,15.665 276.4466,15.376 277.1836,15.216 C277.9206,15.056 278.6256,14.96 279.3636,14.96 C280.1976,14.96 280.9666,15.056 281.7046,15.281 C282.4096,15.505 283.0506,15.826 283.5956,16.274 C284.1406,16.723 284.5576,17.268 284.8776,17.941 C285.1986,18.615 285.3906,19.384 285.4226,20.282 L283.4036,20.282 C283.3716,19.672 283.2436,19.127 283.0186,18.647" id="Fill-22" fill="#444444" mask="url(#mask-4)"></path>
            </g>
        </g>
    </g>
</svg>