<svg width="796" height="213" viewBox="0 0 796 213" fill="none" xmlns="http://www.w3.org/2000/svg">
<g clip-path="url(#clip0_39_192)">
<path d="M756.99 212.75C734.897 212.75 718.51 207.003 707.83 195.51C697.15 184.016 691.817 167.763 691.83 146.75C691.83 124.483 697.887 107.916 710 97.0498C722.113 86.1831 738.413 80.7498 758.9 80.7498C765.888 80.6275 772.87 81.2104 779.74 82.4898C785.277 83.6585 790.65 85.4988 795.74 87.9698V105.33C786.12 100.703 775.167 98.3898 762.88 98.3898C747.2 98.3898 735.087 102.086 726.54 109.48C717.993 116.873 713.717 129.296 713.71 146.75C713.71 163.49 717.453 175.736 724.94 183.49C732.427 191.243 744.807 195.116 762.08 195.11C773.755 195.238 785.323 192.872 796.01 188.17V205.8C790.288 208.161 784.326 209.894 778.23 210.97C771.218 212.202 764.109 212.797 756.99 212.75Z" fill="#23382E"/>
<path d="M0.219952 203.97C19.15 144.79 43.1399 82.3198 67.6199 14.9698C71.6199 3.79981 82.0099 -3.30019 94.5099 4.68981C103.37 10.3698 113.69 31.9698 122.82 46.1298C136.61 67.5298 139.54 75.2298 142.82 71.4498C150.98 62.0698 171.26 18.5798 181.22 5.36981C186.98 -2.27019 201.88 -2.09019 207.32 8.06981C217.88 27.8198 236.93 74.4798 248.32 99.7498C259.21 123.86 274.32 157.29 289.21 193.52C290.58 196.87 290.21 207.34 281.39 208.21C273.52 208.97 269.71 209.42 261.82 208.89C255.16 208.43 252.26 207.06 248.82 198.89C227.62 148.74 208.39 105.21 185.94 52.1698C179 35.7598 167.02 44.2298 162.67 51.5498C144.43 82.1798 138.4 97.5498 122.86 97.5498C110.62 98.2598 98.32 71.9698 85.4799 52.2198C75.8099 37.3198 67.4799 41.7298 64.1099 50.7498C42.7599 107.47 27.37 151.65 9.48995 207.55C8.90995 209.35 -1.65005 209.85 0.219952 203.97Z" fill="#23382E"/>
<path d="M657.62 5.67997C638.7 64.86 614.7 127.34 590.26 194.68C586.21 205.86 575.85 212.97 563.35 204.97C554.48 199.3 537.77 161.57 530.18 146.54C513.98 114.41 493 67.84 491.55 64.54C481.31 41.34 473.55 28.11 473.71 13.97C473.83 3.84997 490.51 -6.70003 502.63 8.02997C511.98 19.41 529.32 59.79 544.03 89.21C554.35 109.87 564.65 130.83 575.19 151.91C582.91 167.37 591.3 162.91 594.7 153.84C616.05 97.12 630.49 57.97 648.37 2.10997C648.95 0.299971 659.51 -0.190029 657.62 5.67997Z" fill="#23382E"/>
<path d="M341.25 133.04C356.48 163.64 372.81 195.87 381.25 203.04C388.69 209.42 399.64 208.34 415.25 207.74C418.37 207.62 426.49 203.88 422.4 197.03C412.08 179.76 406.55 171.96 390.4 144.12C385.24 135.23 370.09 112.55 370.09 104.46C370.09 91.7499 392.63 92.7099 403.86 89.7799C422.22 84.9899 431.86 75.4499 431.86 52.7799C431.86 6.38987 394.55 1.04986 370.13 0.859863C345.98 0.859863 318.77 1.48986 289.86 1.48986C275.49 1.48986 285.97 27.2399 295.86 31.3999C308.61 36.7699 346.43 33.3999 381.6 33.3999C414.04 33.3999 414.41 55.0399 414.41 62.3999C414.41 99.3099 345.27 80.0499 330.71 89.3399C319 96.7699 335.07 120.61 341.25 133.04Z" fill="#23382E"/>
</g>
<defs>
<clipPath id="clip0_39_192">
<rect width="796" height="212.75" fill="white"/>
</clipPath>
</defs>
</svg>
