<svg xmlns="http://www.w3.org/2000/svg" id="Ebene_1" viewBox="0 0 322.91 66.23"><defs><style>      .cls-1 {        fill: #1d1d1b;      }    </style></defs><g><path class="cls-1" d="M37.7,51.86c-.3,0-.61-.11-.85-.33-.51-.47-.54-1.26-.07-1.77l4.39-4.75-24.78-24.98c-.49-.49-.48-1.28,0-1.76L34.32.37c.49-.49,1.28-.49,1.77,0l17.91,17.91c.49.49.49,1.28,0,1.77l-14.79,14.79c-.49.49-1.28.49-1.77,0-.49-.49-.49-1.28,0-1.77l13.91-13.9L35.2,3.02l-16.15,16.15,24.74,24.94c.47.48.49,1.24.03,1.73l-5.21,5.62c-.25.27-.58.4-.92.4Z"></path><path class="cls-1" d="M1.25,66.23c-.31,0-.62-.11-.86-.34-.5-.47-.53-1.26-.05-1.77l26.87-28.54c.47-.5,1.27-.52,1.77-.05.5.47.53,1.26.05,1.77L2.16,65.84c-.25.26-.58.39-.91.39ZM13.75,60.82c-.31,0-.62-.11-.86-.35-.5-.48-.52-1.27-.04-1.77l18.12-18.95c.48-.5,1.27-.52,1.77-.04s.52,1.27.04,1.77l-18.12,18.95c-.25.26-.57.39-.9.39ZM26.24,55.4c-.32,0-.63-.12-.87-.36-.49-.48-.5-1.27-.02-1.77l9.37-9.58c.48-.49,1.27-.5,1.77-.02.49.48.5,1.27.02,1.77l-9.37,9.58c-.25.25-.57.38-.89.38ZM43.32,23.12c-.32,0-.64-.12-.88-.37-.49-.49-.49-1.28,0-1.77l3.54-3.54c.49-.49,1.28-.49,1.77,0,.49.49.49,1.28,0,1.77l-3.54,3.54c-.24.24-.56.37-.88.37Z"></path></g><g><g><path class="cls-1" d="M79.63,26.87s0-5.21-5.21-5.21-5.21,5.21-5.21,5.21v12.91s0,5.21,5.21,5.21,5.21-5.21,5.21-5.21v-12.91ZM84.63,26.87v12.91s0,10.41-10.41,10.41-10.41-10.41-10.41-10.41v-12.91s0-10.41,10.41-10.41,10.41,10.41,10.41,10.41"></path><path class="cls-1" d="M113.79,26.87h-5.21s0-5.21-5.21-5.21-5.21,5.21-5.21,5.21v12.91s0,5.21,5.21,5.21,5.21-5.21,5.21-5.21h5.21s0,10.41-10.41,10.41-10.41-10.41-10.41-10.41v-12.91s0-10.41,10.41-10.41,10.41,10.41,10.41,10.41"></path></g><polygon class="cls-1" points="139.2 16.66 139.2 21.87 131.29 21.87 131.29 50.2 126.08 50.2 126.08 21.66 118.38 21.66 118.38 16.66 139.2 16.66"></polygon><path class="cls-1" d="M160.03,26.87s0-5.21-5.21-5.21-5.21,5.21-5.21,5.21v12.91s0,5.21,5.21,5.21,5.21-5.21,5.21-5.21v-12.91ZM165.24,26.87v12.91s0,10.41-10.41,10.41-10.41-10.41-10.41-10.41v-12.91s0-10.41,10.41-10.41,10.41,10.41,10.41,10.41"></path><polygon class="cls-1" points="191.27 16.66 191.27 21.87 183.57 21.87 183.57 50.2 178.36 50.2 178.36 21.66 170.65 21.66 170.65 16.66 191.27 16.66"></polygon><g><path class="cls-1" d="M202.73,32.08h5.42c1.04,0,4.79-.62,4.79-5.21,0-5.21-5.21-5.21-5.21-5.21h-5.21v10.41h.21ZM210.85,36.66l7.5,13.33h-5.83l-7.29-12.91h-2.5v12.91h-5.21V16.66h10.41s10.41,0,10.41,10.41c0,6.46-4.37,8.96-7.5,9.58"></path><path class="cls-1" d="M242.09,26.87s0-5.21-5.21-5.21-5.21,5.21-5.21,5.21v12.91s0,5.21,5.21,5.21,5.21-5.21,5.21-5.21v-12.91ZM247.3,26.87v12.91s0,10.41-10.41,10.41-10.41-10.41-10.41-10.41v-12.91s0-10.41,10.41-10.41,10.41,10.41,10.41,10.41"></path></g><polygon class="cls-1" points="277.29 16.45 277.29 49.99 272.09 49.99 261.67 28.12 261.67 49.99 256.47 49.99 256.47 16.45 261.67 16.45 272.09 38.32 272.09 16.45 277.29 16.45"></polygon><rect class="cls-1" x="287.71" y="16.45" width="5.21" height="33.74"></rect><path class="cls-1" d="M322.91,26.87h-5.21s0-5.21-5.21-5.21-5.21,5.21-5.21,5.21v12.91s0,5.21,5.21,5.21,5.21-5.21,5.21-5.21h5.21s0,10.41-10.41,10.41-10.41-10.41-10.41-10.41v-12.91s0-10.41,10.41-10.41,10.41,10.41,10.41,10.41"></path></g></svg>