<?xml version="1.0" encoding="UTF-8" standalone="no"?>
<svg
   xmlns:dc="http://purl.org/dc/elements/1.1/"
   xmlns:cc="http://creativecommons.org/ns#"
   xmlns:rdf="http://www.w3.org/1999/02/22-rdf-syntax-ns#"
   xmlns:svg="http://www.w3.org/2000/svg"
   xmlns="http://www.w3.org/2000/svg"
   viewBox="0 0 503.72 290.02667"
   height="290.02667"
   width="503.72"
   xml:space="preserve"
   id="svg2"
   version="1.1"><metadata
     id="metadata8"><rdf:RDF><cc:Work
         rdf:about=""><dc:format>image/svg+xml</dc:format><dc:type
           rdf:resource="http://purl.org/dc/dcmitype/StillImage" /></cc:Work></rdf:RDF></metadata><defs
     id="defs6" /><g
     transform="matrix(1.3333333,0,0,-1.3333333,0,290.02667)"
     id="g10"><g
       transform="scale(0.1)"
       id="g12"><path
         id="path14"
         style="fill:#063358;fill-opacity:1;fill-rule:nonzero;stroke:none"
         d="m 1102.44,599.98 1.03,-88.07 c 154.69,5.629 297.45,70.629 403.05,183.5 l -66.94,61.602 C 1351.44,661.609 1232.08,606 1102.44,599.98 v 0" /><path
         id="path16"
         style="fill:#063358;fill-opacity:1;fill-rule:nonzero;stroke:none"
         d="m 1104.51,1580.12 c 127.89,-5.37 246.37,-59.26 334.66,-152.19 l 73.27,69.04 c -108.88,110 -253.37,171.04 -407.93,172.33 v -89.18 0" /><path
         id="path18"
         style="fill:#063358;fill-opacity:1;fill-rule:nonzero;stroke:none"
         d="m 1111.81,1967.7 c 32.97,0 65.53,-1.64 97.68,-4.77 L 1103.57,2175.2 996.715,1961.06 c 37.775,4.33 76.175,6.64 115.095,6.64" /><path
         id="path20"
         style="fill:#063358;fill-opacity:1;fill-rule:nonzero;stroke:none"
         d="m 1094.37,207.52 c -32.95,0 -65.53,1.64 -97.655,4.742 L 1102.63,0 1209.49,214.16 c -37.78,-4.359 -76.17,-6.64 -115.12,-6.64" /><path
         id="path22"
         style="fill:#063358;fill-opacity:1;fill-rule:nonzero;stroke:none"
         d="m 217.082,1090 c 0,37.64 2.09,74.77 6.035,111.35 L 0,1090 223.117,978.66 c -3.945,36.58 -6.035,73.71 -6.035,111.34" /><path
         id="path24"
         style="fill:#063358;fill-opacity:1;fill-rule:nonzero;stroke:none"
         d="m 1083.55,872.211 c -120.093,0 -217.792,97.699 -217.792,217.789 0,120.1 97.699,217.8 217.792,217.8 120.09,0 217.78,-97.7 217.78,-217.8 0,-120.09 -97.69,-217.789 -217.78,-217.789 z m 0,560.389 c -188.909,0 -342.597,-153.69 -342.597,-342.6 0,-188.91 153.688,-342.602 342.597,-342.602 188.9,0 342.59,153.692 342.59,342.602 0,188.91 -153.69,342.6 -342.59,342.6" /><path
         id="path26"
         style="fill:#063358;fill-opacity:1;fill-rule:nonzero;stroke:none"
         d="m 1099.51,1674.32 v 195.45 c -431.783,0 -781.815,-350.02 -781.815,-781.8 0,-138.958 36.418,-269.349 99.981,-382.431 l 87.574,47.902 C 578.516,623.531 692.824,519.879 830.602,460.102 l -37.114,-91.743 c 93.992,-40.019 197.41,-62.211 306.022,-62.211 v 195.454 c -323.834,0 -586.365,262.519 -586.365,586.368 0,323.83 262.531,586.35 586.365,586.35" /><path
         id="path28"
         style="fill:#063358;fill-opacity:1;fill-rule:nonzero;stroke:none"
         d="m 1566.05,769.629 h 437.66 c 26.27,0 51.21,4.98 74.12,14.812 22.93,9.821 43.38,23.61 60.76,40.969 17.34,17.371 31.13,37.809 40.98,60.762 9.82,22.937 14.8,47.867 14.8,74.109 0,26.207 -4.98,51.149 -14.8,74.119 -9.85,22.94 -23.62,43.12 -40.92,59.99 -17.42,16.9 -37.87,30.46 -60.82,40.3 -22.91,9.83 -47.85,14.81 -74.12,14.81 h -260.88 c -19.71,0 -36.54,7.1 -49.99,21.1 -13.43,13.95 -20.25,30.97 -20.25,50.57 0,19.63 6.84,36.42 20.31,49.91 13.47,13.47 30.26,20.31 49.93,20.31 h 387.01 c 18.03,42.61 41.72,82.58 70.49,118.99 h -467.5 c -17.98,0 -43.16,-5.82 -64.12,-14.81 -22.98,-9.84 -43.17,-23.38 -60.05,-40.25 -16.83,-16.84 -30.38,-37.04 -40.25,-60.03 -9.83,-22.95 -14.81,-47.9 -14.81,-74.12 0,-26.24 4.98,-51.18 14.81,-74.12 9.86,-22.99 23.42,-43.45 40.3,-60.81 16.87,-17.33 37.04,-31.1 60,-40.92 22.88,-9.83 47.81,-14.81 74.12,-14.81 h 260.88 c 20.59,0 37.87,-6.83 51.37,-20.31 13.47,-13.501 20.31,-30.29 20.31,-49.919 0,-20.601 -6.84,-37.871 -20.31,-51.351 -13.46,-13.481 -30.74,-20.309 -51.37,-20.309 h -377.49 c -15.37,-41.812 -35.59,-81.793 -60.17,-118.992 v 0" /><path
         id="path30"
         style="fill:#063358;fill-opacity:1;fill-rule:nonzero;stroke:none"
         d="m 2626.47,1415.75 c -41.41,0 -82.68,-8.06 -122.67,-23.96 -39.96,-15.9 -76.31,-40.06 -108.07,-71.81 -31.77,-31.8 -55.68,-67.9 -71.05,-107.3 -15.43,-39.53 -23.26,-80.81 -23.26,-122.68 0,-41.89 7.83,-83.17 23.26,-122.68 15.33,-39.371 39.26,-75.468 71.05,-107.3 31.8,-31.79 68.17,-55.95 108.07,-71.801 79.95,-31.797 165.29,-31.809 245.31,0 39.91,15.851 76.29,40.019 108.08,71.801 l 38.97,38.96 -102.34,68.481 -22.44,-21.75 c -18.93,-19.93 -41.34,-35.199 -66.45,-45.242 -25.02,-10.02 -51.41,-15.09 -78.46,-15.09 -56.13,0 -104.93,20.312 -145.01,60.391 -20.04,20.019 -35.28,42.902 -45.3,67.98 -10,25 -15.08,50.9 -15.08,76.99 0,26.03 5.08,51.94 15.06,76.99 10.06,25.12 25.33,47.52 45.42,66.6 19.96,19.94 42.83,35.18 67.9,45.21 50.15,20.03 103.89,20.03 153.98,0 25.06,-10.03 47.93,-25.27 68,-45.29 l 21.23,-20.59 99,71.84 -34.48,34.48 c -31.76,31.74 -68.11,55.9 -108.08,71.82 -40,15.89 -81.25,23.95 -122.64,23.95 v 0" /><g
         transform="scale(10)"
         id="g32"><text
           id="text36"
           style="font-variant:normal;font-weight:bold;font-size:27px;font-family:NotoSans;-inkscape-font-specification:NotoSans-Bold;writing-mode:lr-tb;fill:#1e3861;fill-opacity:1;fill-rule:nonzero;stroke:none"
           transform="matrix(1,0,0,-1,141.971,30.6148)"><tspan
             id="tspan34"
             y="0"
             x="0 10.503 37.016998 54.108002 66.102745 82.555855 97.91478 106.15452 123.89962 140.98552 147.99919 159.99631 175.94839 192.25639 200.49614 208.7359 220.45609">Improving reality</tspan></text>
</g></g></g></svg>