<svg clip-rule="evenodd" fill-rule="evenodd" stroke-linejoin="round" stroke-miterlimit="1.41421" viewBox="0 0 560 400" xmlns="http://www.w3.org/2000/svg"><g fill-rule="nonzero" transform="matrix(2.9823 0 0 2.9823 95.7143 155)"><path d="m46.211 6.749h-6.839c-.466 0-.866.342-.939.802l-2.766 17.537c-.005.029-.007.059-.007.088 0 .313.257.57.57.57h3.266c.466 0 .867-.343.939-.803l.746-4.73c.072-.46.472-.803.938-.803h2.165c4.505 0 7.105-2.18 7.784-6.5.306-1.89.013-3.375-.872-4.415-.972-1.142-2.696-1.746-4.985-1.746zm.789 6.405c-.374 2.454-2.249 2.454-4.062 2.454h-1.032l.724-4.583c.044-.276.284-.481.563-.481h.473c1.235 0 2.4 0 3.002.704.359.42.469 1.044.332 1.906zm19.654-.079h-3.275c-.279 0-.519.205-.563.481l-.145.916-.229-.332c-.709-1.029-2.29-1.373-3.868-1.373-3.619 0-6.71 2.741-7.312 6.586-.313 1.918.132 3.752 1.22 5.031.998 1.176 2.426 1.666 4.125 1.666 2.916 0 4.533-1.875 4.533-1.875l-.146.91c-.005.03-.007.06-.007.09 0 .312.257.57.569.57h2.95c.466 0 .867-.343.939-.803l1.77-11.209c.005-.03.007-.06.007-.09 0-.312-.256-.568-.568-.568zm-4.565 6.374c-.316 1.871-1.801 3.127-3.695 3.127-.951 0-1.711-.305-2.199-.883-.484-.574-.668-1.391-.514-2.301.295-1.855 1.805-3.152 3.67-3.152.93 0 1.686.309 2.184.892.499.589.697 1.411.554 2.317zm22.007-6.374h-3.291c-.315 0-.61.157-.787.417l-4.539 6.686-1.924-6.425c-.121-.401-.493-.678-.912-.678h-3.234c-.001 0-.001 0-.002 0-.312 0-.57.257-.57.57 0 .063.011.125.031.184l3.625 10.638-3.408 4.811c-.068.096-.105.212-.105.33 0 .313.257.57.57.57h3.287c.311 0 .604-.152.781-.408l10.946-15.8c.066-.095.102-.209.102-.325 0-.313-.257-.57-.57-.57z" fill="#253b80"/><path d="m94.992 6.749h-6.84c-.465 0-.866.342-.938.802l-2.766 17.537c-.005.029-.007.059-.007.089 0 .312.257.569.569.569h3.51c.326 0 .606-.24.656-.562l.785-4.971c.072-.46.472-.803.938-.803h2.164c4.506 0 7.105-2.18 7.785-6.5.307-1.89.012-3.375-.873-4.415-.971-1.142-2.694-1.746-4.983-1.746zm.789 6.405c-.373 2.454-2.248 2.454-4.062 2.454h-1.031l.725-4.583c.043-.276.283-.481.562-.481h.473c1.234 0 2.4 0 3.002.704.359.42.468 1.044.331 1.906zm19.653-.079h-3.273c-.279-.001-.52.205-.562.481l-.145.916-.23-.332c-.709-1.029-2.289-1.373-3.867-1.373-3.619 0-6.709 2.741-7.311 6.586-.312 1.918.131 3.752 1.219 5.031 1 1.176 2.426 1.666 4.125 1.666 2.916 0 4.533-1.875 4.533-1.875l-.146.91c-.005.03-.007.06-.007.09 0 .313.257.57.57.57h.001 2.949c.466 0 .866-.343.938-.803l1.771-11.209c.004-.029.007-.058.007-.087 0-.313-.258-.571-.571-.571-.001 0-.001 0-.001 0zm-4.565 6.374c-.314 1.871-1.801 3.127-3.695 3.127-.949 0-1.711-.305-2.199-.883-.484-.574-.666-1.391-.514-2.301.297-1.855 1.805-3.152 3.67-3.152.93 0 1.686.309 2.184.892.501.589.699 1.411.554 2.317zm8.426-12.219-2.807 17.858c-.005.029-.007.059-.007.089 0 .312.257.569.569.569h2.822c.469 0 .867-.34.939-.803l2.768-17.536c.005-.029.007-.059.007-.089 0-.312-.257-.569-.569-.57h-3.16c-.279.001-.519.206-.562.482z" fill="#179bd7"/><path d="m7.266 29.154.523-3.322-1.165-.027h-5.563l3.866-24.513c.024-.154.158-.269.314-.268h9.38c3.114 0 5.263.648 6.385 1.927.526.6.861 1.227 1.023 1.917.17.724.173 1.589.007 2.644l-.012.077v.676l.526.298c.402.203.763.479 1.065.812.45.513.741 1.165.864 1.938.127.795.085 1.741-.123 2.812-.24 1.232-.628 2.305-1.152 3.183-.462.787-1.084 1.468-1.825 2-.696.494-1.523.869-2.458 1.109-.906.236-1.939.355-3.072.355h-.73c-.522 0-1.029.188-1.427.525-.397.341-.661.811-.744 1.328l-.055.299-.924 5.855-.042.215c-.011.068-.03.102-.058.125-.027.022-.061.035-.096.035z" fill="#253b80"/><path d="m23.048 7.667c-.028.179-.06.362-.096.55-1.237 6.351-5.469 8.545-10.874 8.545h-2.752c-.661 0-1.218.48-1.321 1.132l-1.409 8.936-.399 2.533c-.006.036-.009.073-.009.11 0 .386.318.704.704.704h4.881c.578 0 1.069-.42 1.16-.99l.048-.248.919-5.832.059-.32c.09-.572.582-.992 1.16-.992h.73c4.729 0 8.431-1.92 9.513-7.476.452-2.321.218-4.259-.978-5.622-.379-.422-.832-.771-1.336-1.03z" fill="#179bd7"/><path d="m21.754 7.151c-.395-.114-.797-.203-1.203-.267-.803-.123-1.614-.183-2.426-.177h-7.352c-.576 0-1.071.423-1.159.992l-1.564 9.906-.045.289c.1-.649.665-1.132 1.321-1.132h2.752c5.405 0 9.637-2.195 10.874-8.545.037-.188.068-.371.096-.55-.326-.171-.667-.315-1.017-.429-.092-.03-.184-.059-.277-.087z" fill="#222d65"/><path d="m9.614 7.699c.088-.569.583-.993 1.159-.991h7.352c.871 0 1.684.057 2.426.177.502.079.997.197 1.481.353.365.121.704.264 1.017.429.368-2.347-.003-3.945-1.272-5.392-1.399-1.593-3.924-2.275-7.155-2.275h-9.38c-.66 0-1.223.48-1.325 1.133l-3.907 24.765c-.007.042-.01.084-.01.126 0 .442.363.805.805.806h5.791l1.454-9.225z" fill="#253b80"/></g></svg>