<?xml version="1.0" encoding="UTF-8"?><svg id="Layer_1" xmlns="http://www.w3.org/2000/svg" viewBox="0 0 756.34 169.21"><defs><style>.cls-1{fill:#fe5716;}.cls-2{fill:#10367a;}</style></defs><path class="cls-1" d="M102.18,25.97c.66-5.29-.13-12.95,3.98-16.65,1.19-5.68,10.07-4.36,8.75-7.93-.79-2.25-5.04-1.19-6.76-.8-1.32.27-13.38,4.1-18.15,4.63-1.99-.53-3.98-1.06-5.96-1.72-7.69,1.06-12.06,7.14-16.31,11.9-3.58,4.09-8.35,13.87-4.5,19.82-.26,1.32-.4,2.64-.66,3.83l8.75,12.69c3.05,2.11,3.45,3.7,6.63,5.81.66,1.06,1.32,1.98,1.99,3.04,2.65,1.72,10.47,1.72,11.66.66,12.46,1.19,11.13-24.05,15.11-29.47-.66-2.25-2.39-4.49-4.51-5.81M48.24,101.82c2.65-.66,7.16-1.06,9.54-2.25,3.71-1.85,16.83-10.96,12.59-18.36-1.32-15.6-20.01-2.38-28.1-7.8-8.09-1.06-17.23-16.25-19.62-22.86-.39-1.32-1.06-2.64-1.85-3.7,0-.26-.79.66-.79.53-2.39,2.77-1.99,5.15-2.39,11.89-1.06,0-2.12-.13-3.18-.26-.26,2.38-.4,3.7-1.59,5.02-.26.39-.53.79-.66,1.19-1.99-.66-1.06.26-1.86-1.45-7.42.39-6.89,7.79-10.34,12.15.14,13.88,27.83,31.19,48.24,25.9M140.22,59.4c-12.06,1.85-19.48,5.68-23.99,8.85-1.85,1.19-3.58,2.77-4.77,4.63-.93,1.58-1.19,3.44-.79,5.15.26,2.25,1.32,4.36,3.05,5.68,14.84-1.06,40.56-1.98,45.59,10.44.26,1.72.66,2.78.66,3.17,4.9-1.19,1.32-.79,8.61.4,1.72.26,5.7-.66,8.48-1.32.79-.27,1.46-.66,1.99-1.45-.13-.66-.13-1.19-.13-1.85,1.19.13,2.52-.13,3.58-.66,6.89-1.06,3.32-4.36,6.5-7.93-2.12-23.12-26.11-28.54-48.77-25.11M113.71,110.01c-3.45,2.64-4.9,1.98-6.89,6.08-.26,0,.26.66.14.66,2.12,4.1,6.76,5.69,10.2,8.59,1.06.93,3.98,5.95,5.43,6.34,1.59,1.85,2.52,7.01,3.58,7.01,1.06,1.45-.14,4.89.92,6.21.14,6.08-.79,6.47-1.85,7.66,0,.4.53,1.59.53,1.98.26.26,2.78,1.98,3.85,1.85,3.31.13,16.96,10.7,18.02,12.68,9.81.8,9.01-2.25,15.77-5.02,1.85-.79,3.31,0,4.5-1.32,1.19-1.32,1.32-3.83,2.52-5.02,0-24.31-32.6-46.91-56.72-47.7M75.28,115.43c-1.32,1.45-5.03,1.98-6.1,3.57-1.59,2.51-5.3,8.19-8.09,10.84-9.27,8.72-29.02,13.08-38.7,4.76-.66,0-.26.4.53,2.77.66,4.5,4.37,15.2,3.05,17.84.93,3.04,1.85,1.85,3.45,3.56,1.19,1.19,1.59,4.1,2.92,4.89,1.46-.13,2.92-.26,4.5-.26.26.8.53,1.59.79,2.52,1.86-.13,3.85-.27,5.7-.4,1.06.26,4.37,1.85,5.3,2.12,2.12-.13,4.24-.27,6.36-.4,4.9,1.32,9.14-.79,13.12-3.44,2.25-1.59,4.77-1.32,6.76-3.04,3.45-3.17,6.36-6.74,8.75-10.84,4.64-8.32,3.05-28.28-1.06-33.17-1.86-1.72-3.71-1.72-7.29-1.32"/><path class="cls-2" d="M222.25,102.35c0,8.85,3.58,20.22,14.31,20.22s13.78-11.63,13.78-20.22-2.92-19.82-13.52-19.82-14.58,11.1-14.58,19.82M205.95,71.29h15.51v8.85h.26c3.58-6.08,9.81-10.31,19.48-10.31,19.22,0,26.24,15.2,26.24,32.51s-7.03,32.78-26.64,32.78c-6.89,0-12.6-1.72-18.29-8.59h-.26v32.64h-16.3v-87.88Z"/><path class="cls-2" d="M303.89,122.57c12.46,0,15.77-11.1,15.77-21.54,0-9.52-5.03-18.5-15.77-18.5s-15.64,9.25-15.64,18.5c0,10.31,3.31,21.54,15.64,21.54M303.89,69.84c18.55,0,32.74,12.42,32.74,33.04,0,17.97-12.06,32.24-32.74,32.24s-32.74-14.27-32.74-32.24c.14-20.49,14.31-33.04,32.74-33.04"/><polygon class="cls-2" points="337.55 71.29 354.78 71.29 368.56 117.41 368.83 117.41 381.42 71.29 400.37 71.29 414.02 117.41 414.29 117.41 427.27 71.29 442.78 71.29 423.56 133.67 404.34 133.67 390.7 86.09 390.43 86.09 377.04 133.67 358.49 133.67 337.55 71.29"/><path class="cls-2" d="M486.91,96.4c-.53-7.93-4.1-14.66-13.25-14.66s-13.78,6.34-14.45,14.66h27.7ZM497.91,130.23c-5.96,3.3-12.72,5.02-21.47,5.02-20.67,0-32.74-11.89-32.74-32.37,0-18.11,9.54-32.9,29.02-32.9,23.19,0,29.82,15.85,29.82,37.66h-43.21c.66,10.04,7.82,15.73,17.89,15.73,7.95,0,14.71-2.91,20.81-6.34l-.14,13.22Z"/><path class="cls-2" d="M512.62,71.29h14.45v14.14h.26c.66-5.82,7.42-15.6,17.09-15.6,1.72-.13,3.32.13,5.04.53v16.39c-2.26-.93-4.77-1.45-7.29-1.32-13.25,0-13.25,16.52-13.25,25.37v22.86h-16.3v-62.37Z"/><path class="cls-2" d="M565.37,83.19h-12.06v-11.89h12.06v-8.72c0-12.42,7.03-21.14,19.88-21.14,3.98,0,7.95.53,11.93,1.32l-1.32,13.48c-2.12-1.45-4.51-2.11-7.03-2.11-5.43,0-7.16,4.76-7.16,9.51v7.8h14.18v11.9h-14.18v50.48h-16.3v-50.61Z"/><rect class="cls-2" x="606.98" y="42.88" width="16.3" height="90.79"/><path class="cls-2" d="M675.36,96.4c-.53-7.93-4.1-14.66-13.25-14.66s-13.78,6.34-14.45,14.66h27.7ZM686.37,130.23c-5.96,3.3-12.72,5.02-21.47,5.02-20.67,0-32.74-11.89-32.74-32.37,0-18.11,9.54-32.9,29.02-32.9,23.19,0,29.82,15.85,29.82,37.66h-43.21c.66,10.04,7.82,15.73,17.89,15.73,7.95,0,14.71-2.91,20.81-6.34l-.14,13.22Z"/><polygon class="cls-2" points="736.73 71.3 724.67 91.64 712.34 71.3 693.13 71.3 712.48 101.03 691 133.67 708.89 133.67 722.94 110.41 736.86 133.67 756.34 133.67 735.27 101.03 753.96 71.3 736.73 71.3"/></svg>