<?xml version="1.0" encoding="UTF-8"?>
<svg id="Layer_1" data-name="Layer 1" xmlns="http://www.w3.org/2000/svg" xmlns:xlink="http://www.w3.org/1999/xlink" viewBox="0 0 454.82 93.4">
  <defs>
    <style>
      .cls-1 {
        fill: url(#linear-gradient-5);
      }

      .cls-2 {
        fill: url(#linear-gradient-4);
      }

      .cls-3 {
        fill: url(#linear-gradient-3);
      }

      .cls-4 {
        fill: url(#linear-gradient-2);
      }

      .cls-5 {
        fill: url(#linear-gradient);
      }

      .cls-6 {
        fill: url(#Uniphore_Gradient);
      }
    </style>
    <linearGradient id="linear-gradient" x1="25.24" y1="48.17" x2="64.01" y2="48.17" gradientTransform="translate(-15.78 1.76) rotate(-12.42)" gradientUnits="userSpaceOnUse">
      <stop offset="0" stop-color="#1f6fb5"/>
      <stop offset="1" stop-color="#47b76e"/>
    </linearGradient>
    <linearGradient id="linear-gradient-2" x1="14.87" y1="43.65" x2="68.23" y2="43.65" xlink:href="#linear-gradient"/>
    <linearGradient id="Uniphore_Gradient" data-name="Uniphore Gradient" x1=".68" y1="43.65" x2="82.42" y2="43.65" gradientTransform="translate(-15.78 1.76) rotate(-12.42)" gradientUnits="userSpaceOnUse">
      <stop offset="0" stop-color="#2973c3"/>
      <stop offset="1" stop-color="#37ad68"/>
    </linearGradient>
    <linearGradient id="linear-gradient-3" x1="6.84" y1="52.69" x2="88.58" y2="52.69" xlink:href="#linear-gradient"/>
    <linearGradient id="linear-gradient-4" x1="13" y1="61.72" x2="94.74" y2="61.72" xlink:href="#linear-gradient"/>
    <linearGradient id="linear-gradient-5" x1="19.16" y1="70.76" x2="100.9" y2="70.76" gradientTransform="translate(-15.78 1.76) rotate(-12.42)" gradientUnits="userSpaceOnUse">
      <stop offset="0" stop-color="#1f6fb5"/>
      <stop offset="1" stop-color="#47b76e"/>
    </linearGradient>
  </defs>
  <g>
    <path d="M113.66,58.33c0,2.05.51,3.91,1.54,5.56,1.03,1.65,2.39,2.97,4.08,3.95,1.7.98,3.59,1.47,5.69,1.47,2.23,0,4.22-.49,5.96-1.47,1.74-.98,3.11-2.3,4.12-3.95,1-1.65,1.51-3.5,1.51-5.56v-31.27h6.09c.52,0,.94.42.94.94v30.53c0,3.53-.83,6.62-2.48,9.27-1.65,2.66-3.88,4.72-6.7,6.19-2.81,1.47-5.96,2.21-9.44,2.21s-6.5-.74-9.31-2.21-5.03-3.54-6.66-6.19c-1.63-2.66-2.44-5.75-2.44-9.27v-31.47h6.16c.52,0,.94.42.94.94v30.33Z"/>
    <path d="M191.06,27.06v32.32l-35.16-32.19h-.33v47.53c0,.52.42.95.95.95h6.28v-31.75l35.16,31.74h.2V28c0-.52-.42-.94-.94-.94h-6.16Z"/>
    <path d="M210.95,27.06h6.22c.52,0,.94.42.94.94v47.67h-6.22c-.52,0-.95-.42-.95-.95V27.06Z"/>
    <path d="M244.23,27.06c3.62,0,6.71.61,9.27,1.84,2.57,1.23,4.53,2.98,5.89,5.26,1.36,2.28,2.04,5.05,2.04,8.3,0,1.92-.29,3.82-.87,5.69-.58,1.87-1.51,3.58-2.78,5.12-1.27,1.54-2.96,2.77-5.06,3.68-2.1.92-4.64,1.37-7.63,1.37h-7.1v17.34h-6.22c-.52,0-.95-.42-.95-.95V27.06h13.39ZM245.1,51.43c1.78,0,3.28-.3,4.49-.9,1.21-.6,2.15-1.37,2.85-2.31.69-.94,1.18-1.91,1.47-2.91.29-1,.44-1.91.44-2.71,0-.89-.15-1.84-.44-2.85-.29-1-.77-1.94-1.44-2.81s-1.59-1.58-2.75-2.14c-1.16-.56-2.61-.84-4.35-.84h-7.37v17.48h7.1Z"/>
    <path d="M309.25,28v47.67h-6.22c-.52,0-.95-.42-.95-.95v-20.01h-24.64v20.96h-6.22c-.52,0-.95-.42-.95-.95V27.06h6.22c.52,0,.94.42.94.94v19.88h24.64v-20.83h6.22c.52,0,.94.42.94.94Z"/>
    <path d="M318.96,51.43c0-3.35.64-6.52,1.91-9.51,1.27-2.99,3.05-5.65,5.32-7.97,2.28-2.32,4.91-4.14,7.9-5.46,2.99-1.32,6.2-1.98,9.64-1.98s6.58.66,9.58,1.98c2.99,1.32,5.65,3.14,7.97,5.46,2.32,2.32,4.13,4.98,5.42,7.97,1.29,2.99,1.94,6.16,1.94,9.51s-.65,6.65-1.94,9.64c-1.3,2.99-3.09,5.62-5.39,7.9-2.3,2.28-4.96,4.05-7.97,5.32-3.01,1.27-6.22,1.91-9.61,1.91s-6.65-.62-9.64-1.87c-2.99-1.25-5.62-3-7.9-5.26-2.28-2.25-4.05-4.89-5.32-7.9-1.27-3.01-1.91-6.26-1.91-9.74ZM326.32,51.43c0,2.5.46,4.83,1.37,7,.91,2.17,2.18,4.06,3.78,5.69,1.61,1.63,3.47,2.9,5.59,3.82,2.12.92,4.41,1.37,6.86,1.37s4.66-.46,6.76-1.37c2.1-.91,3.94-2.19,5.52-3.82,1.58-1.63,2.82-3.53,3.72-5.69.89-2.16,1.34-4.5,1.34-7s-.46-4.83-1.37-7c-.92-2.16-2.17-4.07-3.75-5.73-1.59-1.65-3.44-2.95-5.56-3.88-2.12-.94-4.39-1.41-6.8-1.41s-4.8.47-6.9,1.41c-2.1.94-3.95,2.23-5.56,3.88-1.61,1.65-2.85,3.57-3.72,5.76-.87,2.19-1.31,4.51-1.31,6.96Z"/>
    <path d="M413.31,75.67l-11.48-18.32c-.28-.45-.14-1.05.32-1.31,1.34-.78,2.47-1.71,3.4-2.79,1.29-1.52,2.23-3.21,2.81-5.09.58-1.88.87-3.77.87-5.69,0-2.5-.44-4.7-1.31-6.6-.87-1.9-2.08-3.49-3.62-4.79-1.54-1.29-3.39-2.29-5.56-2.98-2.17-.69-4.52-1.04-7.06-1.04h-12.38c-.52,0-.95.42-.95.95v46.72c0,.52.42.95.95.95h6.22v-16.46c0-.52.42-.95.95-.95h6.15c.22,0,.43,0,.64,0,.33,0,.65.15.82.43l10.64,16.55c.17.27.47.44.8.44h7.79ZM385.52,34.9c0-.52.42-.95.95-.95h6.42c1.7,0,3.12.29,4.29.87,1.16.58,2.09,1.32,2.78,2.21.69.89,1.18,1.83,1.47,2.81.29.98.44,1.92.44,2.81,0,.94-.15,1.91-.44,2.91-.29,1-.78,1.94-1.47,2.81-.69.87-1.65,1.6-2.88,2.18-1.23.58-2.76.87-4.59.87h-6.02c-.52,0-.95-.42-.95-.95v-15.58Z"/>
    <path d="M421.95,27.06h31c.52,0,.94.42.94.94v5.96h-24.78v13.86h22.03v6.9h-22.03v14.06h25.71v6.9h-31.93c-.52,0-.95-.42-.95-.95V27.06Z"/>
  </g>
  <g>
    <path class="cls-5" d="M29.73,55.26l4.3-19.27c.42-1.9,1.91-3.38,3.81-3.8l14.59-3.21,1.68-7.51-22.11,4.87c-1.9.42-3.38,1.9-3.8,3.79l-5.98,26.78,7.51-1.65Z"/>
    <path class="cls-4" d="M19.6,57.5l6.47-29c.42-1.9,1.91-3.38,3.81-3.79l24.73-5.45,1.68-7.51-32.24,7.1c-1.9.42-3.38,1.9-3.8,3.79l-8.15,36.51,7.51-1.65Z"/>
    <path class="cls-6" d="M61.07,1.44l-10.82,48.46c-.42,1.9-1.91,3.38-3.81,3.8l-37.47,8.25,9.14-40.96c.42-1.9,1.91-3.37,3.8-3.79l34.86-7.68,1.68-7.51L16.07,11.35c-1.9.42-3.38,1.9-3.8,3.79L.02,70.05c-.11.5.33.94.83.83l51.87-11.42c1.63-.36,2.91-1.63,3.28-3.27L68.34.85c.11-.5-.33-.94-.83-.83l-6.45,1.42Z"/>
    <path class="cls-3" d="M69.03,8.94l-10.82,48.46c-.42,1.9-1.91,3.38-3.81,3.8l-44.99,9.91-1.44,6.44c-.11.5.33.94.83.83l51.87-11.42c1.63-.36,2.91-1.63,3.28-3.27l12.35-55.34c.11-.5-.33-.94-.83-.83l-6.45,1.42Z"/>
    <path class="cls-2" d="M76.99,16.44l-10.82,48.46c-.42,1.9-1.91,3.38-3.81,3.8l-44.99,9.91-1.44,6.44c-.11.5.33.94.83.83l51.87-11.42c1.63-.36,2.91-1.63,3.28-3.27l12.35-55.34c.11-.5-.33-.94-.83-.83l-6.45,1.42Z"/>
    <path class="cls-1" d="M84.95,23.94l-10.82,48.46c-.42,1.9-1.91,3.38-3.81,3.8l-44.99,9.91-1.44,6.44c-.11.5.33.94.83.83l51.87-11.42c1.63-.36,2.91-1.63,3.28-3.27l12.35-55.34c.11-.5-.33-.94-.83-.83l-6.45,1.42Z"/>
  </g>
</svg>