<svg width="161" height="36" viewBox="0 0 161 36" fill="none" xmlns="http://www.w3.org/2000/svg">
<path fill-rule="evenodd" clip-rule="evenodd" d="M96.435 17.4369C96.435 11.949 101.089 7.46265 106.798 7.46265C112.531 7.46265 117.213 11.9471 117.213 17.4369C117.213 22.9772 112.531 27.4364 106.798 27.4364C101.089 27.4364 96.435 22.9753 96.435 17.4369ZM106.798 11.8907C103.723 11.8907 101.208 14.4916 101.208 17.4369C101.208 20.4108 103.726 23.0337 106.798 23.0337C109.895 23.0337 112.389 20.4119 112.389 17.4369C112.389 14.4905 109.898 11.8907 106.798 11.8907Z" fill="#001520"/>
<path fill-rule="evenodd" clip-rule="evenodd" d="M140.222 17.4369C140.222 11.949 144.876 7.46265 150.586 7.46265C156.319 7.46265 161 11.9471 161 17.4369C161 22.9772 156.319 27.4364 150.586 27.4364C144.876 27.4364 140.222 22.9753 140.222 17.4369ZM150.586 11.8907C147.51 11.8907 144.995 14.4916 144.995 17.4369C144.995 20.4108 147.513 23.0337 150.586 23.0337C153.683 23.0337 156.176 20.4119 156.176 17.4369C156.176 14.4905 153.686 11.8907 150.586 11.8907Z" fill="#001520"/>
<path d="M125.897 17.5745L118.346 7.96608H123.095C123.861 7.96608 124.585 8.31732 125.057 8.91856L128.879 13.7814L132.702 8.91827C133.175 8.31721 133.898 7.96608 134.664 7.96608H139.414L131.864 17.5635L139.239 26.9584H134.489C133.722 26.9584 132.998 26.6068 132.526 26.0052L128.881 21.3647L125.229 26.0068C124.757 26.6075 124.034 26.9584 123.268 26.9584H118.501L125.897 17.5745Z" fill="#001520"/>
<path d="M70.7131 7.96609H74.9185C75.3733 7.96609 76.3365 8.15928 76.9563 9.08255L83.0471 18.7645L89.1103 9.13042C89.5663 8.40593 90.3641 7.96609 91.2222 7.96609H95.3645L83.047 27.5737L70.7131 7.96609Z" fill="#001520"/>
<path d="M4.53347 0.000378171H0L19.0501 31.453C21.0173 34.579 24.4257 35.8601 27.5106 35.5297L6.72317 1.20068C6.25471 0.456403 5.4148 0.00306993 4.53347 0.000378171Z" fill="#F92120"/>
<path d="M16.5166 0.000378175C17.398 0.00306993 18.2452 0.456403 18.7137 1.20068L31.9045 22.9873C32.1834 23.4407 32.8481 23.4427 33.1238 22.9873L45.4955 2.56182H45.4968L45.8519 1.97328L46.345 1.15876C46.8194 0.439725 47.6731 0.00301996 48.5377 0.000378175H53.0487L35.5266 28.9493C37.0742 30.9836 40.1574 30.9639 41.6416 28.7434L58.3479 1.13397C58.4587 0.970255 58.5887 0.821555 58.7338 0.689701C59.1124 0.351251 59.694 0.0290291 60.4382 0.00168069C60.4655 0.000813314 60.4927 0.000373575 60.52 0.000366211L65.033 0.000378175L46.0223 31.4007C44.354 34.1181 41.3975 35.5824 38.479 35.58C35.5862 35.5775 32.6347 34.0601 31.022 31.453L11.9715 0.000378175H16.5166Z" fill="#F92120"/>
<path d="M31.9799 23.0787L35.5514 28.9712L53.0839 0H48.5699C47.7047 0.00264352 46.8505 0.439636 46.3757 1.15914L45.8823 1.9742L45.527 2.56312H45.5257L33.1458 23.002C32.8865 23.4304 32.2831 23.4544 31.9799 23.0787Z" fill="url(#paint0_linear)"/>
<defs>
<linearGradient id="paint0_linear" x1="50.2459" y1="1.75566" x2="35.8946" y2="26.4881" gradientUnits="userSpaceOnUse">
<stop stop-color="#F92120"/>
<stop offset="1" stop-color="#C00100"/>
</linearGradient>
</defs>
</svg>
