<svg xmlns="http://www.w3.org/2000/svg" xmlns:xlink="http://www.w3.org/1999/xlink" viewBox="0 0 200.51 26.31"><defs><style>.cls-1{fill:none;}.cls-2{clip-path:url(#clip-path);}.cls-3{fill:#3c3c3b;}.cls-4{fill:#36bcee;}</style><clipPath id="clip-path" transform="translate(0)"><rect class="cls-1" width="200.51" height="26.3"/></clipPath></defs><title>wirelesscar-color</title><g id="Lager_2" data-name="Lager 2"><g id="Lager_1-2" data-name="Lager 1"><g class="cls-2"><path class="cls-3" d="M193.08,25.25v-6c0-3.75,1.1-8.4,5.12-8.4a5.52,5.52,0,0,1,2,.36l.27-1.47a6.14,6.14,0,0,0-2.31-.43c-2.71,0-4.42,1.77-5.12,4.38V9.62h-1.54V25.25Zm-20.81-7.83a6.46,6.46,0,0,1,6.53-6.59,6.56,6.56,0,0,1,6.62,6.76,6.58,6.58,0,0,1-13.15-.17m13.15,7.83H187V9.62h-1.54V13a7.47,7.47,0,0,0-6.62-3.68,8,8,0,0,0-8.07,8.13,8,8,0,0,0,8.07,8.16,7.56,7.56,0,0,0,6.62-3.71Zm-18.2-3.85a9.76,9.76,0,0,1-6.76,2.68c-5.59,0-9.77-4.62-9.77-10.31s4.18-10.34,9.77-10.34a9.89,9.89,0,0,1,6.76,2.68l1-1.07a11.38,11.38,0,0,0-7.8-3.11c-6.43,0-11.28,5.28-11.28,11.84S154,25.58,160.46,25.58a11.24,11.24,0,0,0,7.8-3.11Z" transform="translate(0)"/><path class="cls-3" d="M140.78,9.29c-2.47,0-4.65,1.4-4.95,3.54-.37,3.48,2,4.46,3.85,4.89l2.27.54c2,.46,2.68,1.6,2.68,2.84,0,1.81-1.51,3-3.88,3a4,4,0,0,1-4.19-2.84h-1.4c.37,2.81,2.91,4.31,5.49,4.31,3.24,0,5.49-1.8,5.49-4.48,0-1.94-1-3.61-3.85-4.32l-2.24-.53c-1.28-.3-3-1-2.72-3.21.2-1.34,1.68-2.28,3.45-2.28a3.11,3.11,0,0,1,3.31,2.44h1.51c-.3-2.57-2.31-3.91-4.82-3.91M127,9.29c-2.47,0-4.65,1.4-4.95,3.54-.37,3.48,2,4.46,3.85,4.89l2.28.54c2,.46,2.67,1.6,2.67,2.84,0,1.81-1.5,3-3.88,3a3.94,3.94,0,0,1-4.18-2.84h-1.41c.37,2.81,2.91,4.31,5.49,4.31,3.25,0,5.49-1.8,5.49-4.48,0-1.94-1-3.61-3.85-4.32l-2.24-.53c-1.27-.3-3-1-2.71-3.21.2-1.34,1.67-2.28,3.44-2.28a3.13,3.13,0,0,1,3.32,2.44h1.5c-.3-2.57-2.31-3.91-4.82-3.91m-8.26,8.1c0-4.92-3.21-8.1-7.67-8.1a7.69,7.69,0,0,0-7.86,8.1c0,4.95,3.48,8.19,7.86,8.19a7.62,7.62,0,0,0,6.9-4l-1.44-.5a6.39,6.39,0,0,1-11.78-3h14a4.17,4.17,0,0,0,0-.7m-7.67-6.6c3.38,0,5.83,2.28,6.13,5.89H104.74a6.16,6.16,0,0,1,6.32-5.89M99,.72h-1.5V25.25H99ZM93.53,17.39c0-4.92-3.21-8.1-7.66-8.1A7.69,7.69,0,0,0,78,17.39c0,4.95,3.48,8.19,7.87,8.19a7.62,7.62,0,0,0,6.89-4l-1.44-.5a6.39,6.39,0,0,1-11.78-3h14a5.54,5.54,0,0,0,0-.7m-7.66-6.6c3.38,0,5.82,2.28,6.12,5.89H79.54a6.16,6.16,0,0,1,6.33-5.89M69.33,25.25v-6c0-3.75,1.11-8.4,5.12-8.4a5.54,5.54,0,0,1,2,.36l.26-1.47a6.1,6.1,0,0,0-2.31-.43c-2.71,0-4.41,1.77-5.12,4.38V9.62H67.8V25.25Zm-6.82,0H61V9.62h1.51ZM50,23,44.9,5.61H43.42L38.34,23l-7-20.82H29.77L37.6,25.25h1.57l5-17,5,17h1.61L58.55,2.19H56.94Z" transform="translate(0)"/><path class="cls-3" d="M8.28.93a13.16,13.16,0,1,0,9.79,24.43" transform="translate(0)"/><path class="cls-4" d="M18.07,25.35A13.15,13.15,0,0,0,8.28.93" transform="translate(0)"/></g></g></g></svg>