<?xml version="1.0" encoding="UTF-8" standalone="no"?>
<svg width="130px" height="130px" viewBox="0 0 130 130" version="1.1" xmlns="http://www.w3.org/2000/svg" xmlns:xlink="http://www.w3.org/1999/xlink">
    <!-- Generator: Sketch 40.3 (33839) - http://www.bohemiancoding.com/sketch -->
    <title>PEX-logo-dark-onwhite</title>
    <desc>Created with Sketch.</desc>
    <defs></defs>
    <g id="Page-1" stroke="none" stroke-width="1" fill="none" fill-rule="evenodd">
        <g id="PEX-logo-dark-onwhite">
            <rect id="Rectangle" fill="#FFFFFF" x="0" y="0" width="130" height="130"></rect>
            <g id="pex-logo" transform="translate(30.000000, 51.000000)" fill="#090C39">
                <g>
                    <path d="M47.2668654,9.34914609 L32.2236461,9.34914609 C31.1643276,9.34914609 30.3025606,10.1843845 30.3025606,11.2110931 C30.3025606,12.2378017 31.1643276,13.07304 32.2236461,13.07304 L47.2668654,13.07304 C48.3261839,13.07304 49.1879507,12.2378017 49.1879507,11.2110931 C49.1879507,10.1843845 48.3261839,9.34914609 47.2668654,9.34914609 L47.2668654,9.34914609 L47.2668654,9.34914609 Z M42.519223,18.3878125 L27.4760038,18.3878125 C26.4166851,18.3878125 25.5549183,19.2230509 25.5549183,20.2497595 C25.5549183,21.2764681 26.4166851,22.1117064 27.4760038,22.1117064 L42.519223,22.1117064 C43.5785415,22.1117064 44.4403084,21.2764681 44.4403084,20.2497595 C44.4403084,19.2230509 43.5785415,18.3878125 42.519223,18.3878125 L42.519223,18.3878125 L42.519223,18.3878125 Z M65.4765137,11.2110931 L73.4651873,3.15087977 C73.8204279,2.79183433 74.0102953,2.32029625 73.9995691,1.82315641 C73.9888431,1.32586141 73.7789646,0.862546936 73.4086753,0.518241908 C73.0491122,0.184022427 72.5768453,0 72.078964,0 C71.5505055,0 71.0580672,0.203572869 70.6925807,0.573014181 L62.8145297,8.52120033 L54.9366388,0.573014181 C54.5709921,0.203572869 54.078554,0 53.5499353,0 C53.0520541,0 52.5797872,0.184177589 52.2203841,0.518241908 C51.850095,0.862546936 51.6402164,1.32586141 51.6294902,1.82315641 C51.6189242,2.32029625 51.8086314,2.79183433 52.1640323,3.15087977 L60.1525458,11.2110931 L52.1638721,19.2711512 C51.8086314,19.6301967 51.6189242,20.1017347 51.6294902,20.5988745 C51.6402164,21.0961695 51.850095,21.5594841 52.2203841,21.9037891 C52.5799472,22.2378534 53.0522141,22.4220309 53.5500954,22.4220309 C54.078714,22.4220309 54.5711523,22.2184581 54.9364786,21.8490167 L62.8145297,13.9006755 L70.6924207,21.8490167 C71.0582274,22.2184581 71.5505055,22.4220309 72.078964,22.4220309 C72.5770055,22.4220309 73.0492722,22.2378534 73.4086753,21.9037891 C73.7789646,21.5594841 73.9888431,21.0961695 73.9995691,20.5988745 C74.0102953,20.1017347 73.8204279,19.6301967 73.4650271,19.2711512 L65.4765137,11.2110931 L65.4765137,11.2110931 Z M10.6817151,18.6069016 L3.8421708,18.6069016 L3.8421708,6.03363917 C3.8421708,4.93105623 4.7674936,4.03421845 5.90509634,4.03421845 L10.6817151,4.03421845 C14.8269371,4.03421845 18.1994025,7.30286636 18.1994025,11.3206376 C18.1994025,15.3384089 14.8269371,18.6069016 10.6817151,18.6069016 L10.6817151,18.6069016 L10.6817151,18.6069016 Z M10.6817151,0.310324495 L5.90509634,0.310324495 C2.64901667,0.310324495 0,2.87779422 0,6.03363917 L0,28.138053 C0,29.1647616 0.861766891,30 1.92108539,30 C2.9804039,30 3.8421708,29.1647616 3.8421708,28.138053 L3.8421708,22.3307956 L10.6817151,22.3307956 C16.9455741,22.3307956 22.0415734,17.3916709 22.0415734,11.3206376 C22.0415734,5.24944917 16.9455741,0.310324495 10.6817151,0.310324495 L10.6817151,0.310324495 L10.6817151,0.310324495 Z M27.4760038,4.03421845 L42.519223,4.03421845 C43.5785415,4.03421845 44.4403084,3.19898006 44.4403084,2.17227147 C44.4403084,1.14556288 43.5785415,0.310324495 42.519223,0.310324495 L27.4760038,0.310324495 C26.4166851,0.310324495 25.5549183,1.14556288 25.5549183,2.17227147 C25.5549183,3.19898006 26.4166851,4.03421845 27.4760038,4.03421845 L27.4760038,4.03421845 L27.4760038,4.03421845 Z"></path>
                </g>
            </g>
        </g>
    </g>
</svg>