<svg xmlns="http://www.w3.org/2000/svg" viewBox="0 0 256 282">
  <g fill="#8CC84B">
    <path d="M116.50415 3.580377c6.96151-3.984905 16.03019-4.00302 22.98566 0C174.48453 23.353962 209.49132 43.097357 244.48 62.88302c6.581132 3.70717 10.982642 11.030942 10.916226 18.61434v118.967546c.048302 7.897358-4.787924 15.396226-11.73132 19.018868-34.88 19.664905-69.741887 39.353962-104.61585 59.018868-7.106414 4.063396-16.356226 3.749433-23.239245-.646038-10.45735-6.061887-20.93283-12.093585-31.39018-18.149434-2.13736-1.273962-4.54641-2.288302-6.05585-4.359245 1.33434-1.799246 3.71925-2.022642 5.65736-2.807548 4.36528-1.38868 8.37434-3.616603 12.3834-5.778113 1.01434-.69434 2.25208-.42868 3.22415.193208 8.94189 5.126037 17.80529 10.40302 26.77736 15.480754 1.91396 1.104906 3.85208-.362264 5.4883-1.273962 34.22793-19.344906 68.49812-38.617358 102.72-57.968302 1.26793-.60981 1.96831-1.956226 1.86566-3.344905.02415-39.245283.00604-78.496604.01208-117.741887.14491-1.57585-.76679-3.024906-2.1917-3.670944C199.54113 58.861886 164.8 39.257358 130.04679 19.67698c-1.243773-.845282-2.84981-.85132-4.093584-.006037C91.2 39.25736 56.464906 58.88 21.711698 78.45434c-1.418868.646037-2.37283 2.070943-2.203773 3.65283.006037 39.245283 0 78.496604 0 117.747924-.120755 1.38868.627924 2.704906 1.88981 3.302642 9.273963 5.258868 18.56 10.48151 27.84 15.722264 5.22868 2.813585 11.646793 4.486038 17.406793 2.330566 5.083774-1.823396 8.646038-7.00981 8.549434-12.407547.048302-39.01585-.02415-78.03774.036227-117.04755-.1268-1.73283 1.51547-3.16378 3.2-3.00076 4.45584-.03019 8.91773-.06038 13.37358.01207 1.85962-.04227 3.13962 1.82339 2.91019 3.5683-.01812 39.26339.0483 78.52679-.03019 117.79019.01207 10.46339-4.2868 21.85056-13.96529 26.97056-11.92453 6.1766-26.66264 4.86641-38.44227-1.05661-10.19774-5.08981-19.93057-11.09736-29.94717-16.549437C5.36754 215.885273.55547 208.35622.60377 200.4649V81.497355c-.072453-7.740374 4.50415-15.19698 11.290566-18.84981 34.87396-19.68302 69.741884-39.37811 104.60981-59.06717z" />
    <path d="M146.928302 85.989434c15.209056-.978113 31.49283-.579623 45.180377 6.913207 10.59622 5.74189 16.47094 17.79321 16.65811 29.5668-.29585 1.58793-1.95623 2.4634-3.4717 2.35472-4.41359-.00603-8.82717.06038-13.24076-.03019-1.8717.07246-2.95849-1.65434-3.19397-3.30868-1.26793-5.6332-4.34113-11.21207-9.64227-13.92905-8.13887-4.07547-17.57585-3.87019-26.45132-3.78566-6.47849.34415-13.44604.90566-18.93434 4.71547-4.21434 2.88604-5.49434 8.71246-3.990948 13.40378 1.418867 3.36906 5.30717 4.45585 8.489056 5.45812 18.330566 4.79396 37.753962 4.31698 55.73434 10.626414 7.44453 2.572076 14.726037 7.57132 17.273962 15.366038 3.33283 10.445286 1.871695 22.93132-5.560758 31.31774-6.02566 6.90113-14.80453 10.656605-23.559246 12.69736-11.646794 2.596226-23.73434 2.66264-35.562265 1.509434-11.12151-1.267925-22.69585-4.19019-31.28151-11.76755-7.341886-6.37585-10.9283-16.307922-10.572075-25.89585.08453-1.61811 1.69661-2.747166 3.2483-2.614336 4.44378-.036227 8.88755-.048302 13.331327.006038 1.775093-.12679 3.09132 1.4068 3.181885 3.07925.82113 5.36755 2.837735 11.000758 7.51698 14.18264 9.032453 5.82642 20.365283 5.42793 30.707925 5.590948 8.567544-.380378 18.18566-.495095 25.17736-6.15849 3.689052-3.23019 4.781882-8.633963 3.78566-13.28302-1.08076-3.924528-5.18642-5.75396-8.712457-6.949434-18.095092-5.723774-37.73585-3.646793-55.65585-10.119246-7.27547-2.57208-14.30943-7.432456-17.104903-14.90717-3.900377-10.578116-2.113207-23.66189 6.098113-31.76453 8.006035-8.06038 19.56226-11.163775 30.55094-12.27472z" />
  </g>
</svg>
